<?xml version="1.0" standalone="no"?>
<!DOCTYPE svg PUBLIC "-//W3C//DTD SVG 1.1//EN" "http://www.w3.org/Graphics/SVG/1.1/DTD/svg11.dtd" >
<svg xmlns="http://www.w3.org/2000/svg">
<metadata></metadata>
<defs>
<font id="parmapetitregular" horiz-adv-x="1011" >
<font-face units-per-em="2048" ascent="1638" descent="-410" />
<missing-glyph horiz-adv-x="514" />
<glyph horiz-adv-x="2048" />
<glyph horiz-adv-x="2048" />
<glyph horiz-adv-x="682" />
<glyph horiz-adv-x="1548" d="M49 553q0 -20 12.5 -30.5t26.5 -10.5t26.5 11.5t12.5 31.5q0 23 -12.5 33t-26.5 10t-26.5 -12.5t-12.5 -32.5zM240 362l915 46v12l-749 37l749 32v19l-795 35l795 39v16l-795 35l795 39v14l-797 37l797 39v12l-915 45v-14l798 -39l-798 -37v-10l800 -41l-800 -37v-12 l798 -39l-798 -37v-14l794 -37l-794 -35v-14l800 -41l-800 -37v-13zM252 31q0 -20 12 -30.5t27 -10.5q14 0 26.5 11.5t12.5 31.5q0 23 -12.5 33t-26.5 10t-26.5 -12.5t-12.5 -32.5zM266 1063q0 -20 12.5 -31.5t26.5 -11.5t26.5 10.5t12.5 30.5t-12.5 31.5t-26.5 11.5 t-26.5 -10.5t-12.5 -30.5zM698 -119q0 -20 12.5 -31.5t27 -12.5t26.5 9t12 33q0 20 -12 31.5t-27 11.5q-14 0 -26.5 -10t-12.5 -31zM698 1212q0 -23 12.5 -34t26.5 -11t26.5 10t12.5 33q0 20 -12 31.5t-27 11.5q-14 0 -26.5 -10t-12.5 -31zM1090 -49l442 620l-442 623 q6 -23 19 -74t31.5 -116.5t37 -137t35 -134t26.5 -105.5t10 -54q0 -10 -10 -54t-26.5 -105.5t-35 -133t-37 -138t-31.5 -118t-19 -73.5z" />
<glyph horiz-adv-x="1718" d="M25 743q0 -18 12 -28t26 -10t26.5 10t12.5 30q0 23 -12 33t-27 10q-14 0 -26 -12t-12 -33zM45 571l2 -16l326 76l315 -133l279 135l309 -133l319 73l-116 -196l233 194l-180 215l67 -196l-321 -76l-311 137l-279 -139l-315 135zM326 440q0 -18 12 -28.5t27 -10.5 q14 0 26 10.5t12 30.5q0 23 -12 33t-26 10t-26.5 -12t-12.5 -33zM610 745q0 -20 12.5 -30t26.5 -10t26.5 11.5t12.5 31.5q0 23 -12 33t-27 10q-14 0 -26.5 -12.5t-12.5 -33.5zM926 442q0 -20 12 -31.5t26.5 -12.5t27 9t12.5 33q0 20 -12.5 31.5t-26.5 11.5t-26.5 -10 t-12.5 -31zM1239 748q0 -20 12.5 -31.5t26.5 -13t26.5 8.5t12.5 33t-12.5 34.5t-26.5 11.5t-26.5 -11.5t-12.5 -31.5z" />
<glyph horiz-adv-x="1478" d="M37 598q0 -145 55 -273t151.5 -223.5t223.5 -151.5t272 -56q143 0 272.5 55t224.5 151.5t151.5 223.5t56.5 272v2q0 143 -55.5 271t-151.5 224.5t-224 151.5t-272 55q-145 0 -273 -55t-223 -151.5t-151.5 -224.5t-56.5 -271zM453 764q0 49 30.5 89t76.5 68.5t98.5 44 t93.5 15.5q49 0 91 -19.5t72.5 -51t48 -74.5t17.5 -93q0 -53 -21.5 -103t-55.5 -96t-73.5 -86t-78.5 -71q53 0 104 -1t102 9l140 129h24q-25 -68 -43 -137.5t-35 -140.5q-45 12 -116.5 15t-151.5 0t-154.5 -9t-125.5 -8l-7 57q70 23 134.5 54.5t113.5 76.5t80 106.5 t31 141.5q0 41 -9.5 82t-30 73.5t-54 53t-80.5 20.5q-43 0 -74 -24.5t-31 -69.5q0 -27 17.5 -48.5t17.5 -47.5q0 -23 -20.5 -43.5t-42.5 -20.5q-43 0 -65.5 35t-22.5 74z" />
<glyph unicode="&#xa;" horiz-adv-x="1626" d="M-6 551q0 -18 12 -27.5t27 -9.5q14 0 26.5 10.5t12.5 30.5t-12.5 31.5t-26.5 11.5t-26.5 -12.5t-12.5 -34.5zM195 344l16 -35l143 76l154 -78l149 78l154 -78l152 78q25 -23 60.5 -40t75.5 -28.5t80 -14.5t72 5l2 -186l379 452l-379 457v-229q-31 -8 -70.5 -4t-79.5 16 t-77 29.5t-61 38.5l-156 -76l-150 76l-153 -76l-152 76l-159 -82l16 -33l143 74l154 -76l149 76l154 -76l152 76q25 -20 61.5 -38t76.5 -28t79 -13t71 5l2 -115q-31 -8 -70.5 -4t-80.5 15.5t-78 29t-61 35.5l-154 -74l-150 74l-153 -74l-152 74l-159 -80l16 -33l143 72 l154 -76l149 76l154 -76l152 76q25 -20 61.5 -37.5t76.5 -28t79 -13.5t71 3l2 -112q-31 -8 -70.5 -4t-80.5 16t-78 29.5t-61 35.5l-154 -73l-150 73l-153 -73l-152 73l-159 -77l16 -35l143 72l154 -76l149 76l154 -76l152 76q25 -20 61.5 -38t76.5 -28t79 -13t71 3l2 -113 q-31 -8 -70.5 -4t-79.5 16.5t-77 30t-61 37.5l-156 -76l-150 76l-153 -76l-152 76zM197 29q0 -18 12 -27.5t27 -9.5q14 0 26 10.5t12 30.5t-12 31.5t-26 11.5t-26.5 -12.5t-12.5 -34.5zM211 1057q0 -18 12.5 -27.5t26.5 -9.5t26.5 10.5t12.5 30.5q0 23 -12.5 34t-26.5 10 t-26.5 -13.5t-12.5 -34.5zM643 -121q0 -20 12.5 -30.5t26.5 -10.5t26.5 9t12.5 32t-12.5 34t-26.5 11t-26.5 -11t-12.5 -34zM643 1210q0 -20 12.5 -30.5t26.5 -10.5t26.5 9t12.5 32t-12.5 34t-26.5 11t-26.5 -11t-12.5 -34z" />
<glyph horiz-adv-x="2" d="M43 1278l299 -401l307 403l-33 23l-256 -269l-286 269z" />
<glyph unicode="&#xd;" horiz-adv-x="477" d="M8 727l2 -10l144 -23q8 -162 6 -323.5t-6 -323.5l-129 -37v-10q200 6 403 0v10l-119 37q0 186 -5 371.5t7 372.5l-28 18q-43 -25 -74 -37t-59.5 -20.5t-61.5 -12.5t-80 -12z" />
<glyph horiz-adv-x="221" d="M-231 0h51l563 1204h-53z" />
<glyph horiz-adv-x="935" d="M27 -467v-10q106 0 211.5 1t212.5 -3v12l-136 35q2 281 -4 560.5t-6 559.5l326 2v-643l-129 -37v-10q202 6 405 0v10l-121 37q0 360 7 721l-19 14q-117 -23 -233.5 -27.5t-235.5 -9.5q0 45 -2 120t10.5 147.5t46 125t105.5 52.5q53 0 63.5 -24.5t12.5 -67.5 q2 -47 21.5 -65.5t42 -16.5t42 21.5t23.5 47.5q4 37 -14.5 66t-48 48.5t-65.5 29.5t-67 10q-98 0 -158.5 -49t-95.5 -123t-48 -162t-15 -164h-101v-53h99q4 -561 0 -1120z" />
<glyph horiz-adv-x="1019" d="M27 -467v-10q106 0 211.5 1t212.5 -3v12l-136 35q2 154 -2 307.5t-8 306.5q-2 127 -1 253t1 253h213v53h-213q0 29 -2 74t-1 95.5t8 100.5t24.5 90t48.5 64.5t78 24.5q76 0 121 -36t49 -114q8 -102 7 -204.5t-1 -204.5q0 -147 -2 -291.5t-4 -292.5l-129 -37v-10 q200 6 403 0v10l-121 37q0 299 -1 593t12 593l-25 27q-16 -6 -38.5 -15.5t-47.5 -16.5t-48.5 -13.5t-39.5 -8.5q-29 16 -59.5 23.5t-63.5 7.5q-98 0 -159.5 -48t-96.5 -122t-47 -161t-14 -165h-99v-53h99q4 -281 3 -560.5t-3 -559.5z" />
<glyph horiz-adv-x="1478" d="M31 598q0 -145 55 -273t151.5 -223.5t223.5 -151.5t272 -56q143 0 272.5 55t224.5 151.5t151.5 223.5t56.5 272v2q0 143 -55.5 271t-151.5 224.5t-224 151.5t-272 55q-145 0 -273 -55t-223.5 -151.5t-151.5 -224.5t-56 -271zM293 348q113 199 222.5 395.5t225.5 393.5h68 l-49 -84h110v-598h195l-16 -133q-45 2 -88 3t-89 1l5 -375h-144v379q-106 -2 -211.5 -3t-212.5 -10zM422 442h315v572q-88 -139 -163.5 -282.5t-151.5 -289.5z" />
<glyph horiz-adv-x="1478" d="M45 594q0 -145 55.5 -272t151.5 -223.5t223 -152t273 -55.5q143 0 271 55.5t224 152t151.5 223.5t55.5 272q0 143 -55.5 271t-151.5 224.5t-224 151.5t-271 55q-145 0 -272.5 -55t-223.5 -151.5t-151.5 -224.5t-55.5 -271zM444.5 222q6.5 34 28 56.5t55.5 22.5 q29 0 54.5 -19.5t25.5 -50.5q0 -18 -9 -34.5t-21.5 -28.5t-21.5 -22.5t-9 -18.5q0 -20 15.5 -35.5t37 -27t44 -16.5t38.5 -5q66 0 115 26.5t81.5 71.5t48 101.5t15.5 115.5q0 55 -17.5 107.5t-50 92.5t-78.5 63.5t-108 23.5q-27 0 -60.5 -15.5t-52.5 -33.5l-28 14l6 496 q47 -4 94 -4q49 0 96 -2q43 0 78 -4t61.5 3t45 31.5t26.5 77.5l15 2q-6 -39 -11.5 -76.5t-5.5 -76.5q0 -25 -6 -48.5t-28 -37.5q-16 -12 -56.5 -16.5t-87.5 -4.5q-45 0 -89 2t-71 4q-8 -72 -11 -144.5t-3 -143.5q25 25 65 33t74 8q119 0 198 -53.5t117 -132.5t34.5 -171 t-47.5 -171t-128 -132t-208 -53q-76 0 -128.5 22.5t-84 56.5t-43 73.5t-5 73.5z" />
<glyph horiz-adv-x="1478" d="M41 594q0 -145 55.5 -273t151.5 -223.5t223 -152t272 -56.5q143 0 272.5 55.5t224.5 152t151.5 223.5t56.5 272q0 143 -55.5 272t-151.5 224.5t-224 151.5t-272 56q-145 0 -273 -55t-223 -151.5t-151.5 -224.5t-56.5 -271zM444 829l93 281h542l21 -27q-16 -35 -54 -110.5 t-88.5 -170.5t-103.5 -197.5t-97 -191.5t-73 -153.5t-29 -83.5q0 -16 13.5 -17t29 -4t28.5 -15.5t13 -51.5q0 -37 -20.5 -56.5t-49 -21.5t-58 11.5t-47 42t-16.5 71.5t36 98q106 176 196 353.5t176 363.5h-325q-43 0 -67.5 -6t-41 -19.5t-29 -37t-28.5 -58.5h-21z" />
<glyph horiz-adv-x="1478" d="M41 598q0 -145 55.5 -273t151.5 -223.5t223 -151.5t272 -56q143 0 272.5 55t224.5 151.5t151.5 223.5t56.5 272q0 143 -55.5 272t-151.5 224.5t-224 151.5t-272 56q-145 0 -273 -55t-223 -151.5t-151.5 -224.5t-56.5 -271zM428 273.5q-14 64.5 5.5 130t78.5 126 t164 103.5q-82 51 -128 113.5t-59.5 127t1 124t53.5 106.5t98 75.5t135 28.5q51 0 99.5 -19.5t86 -54t60 -80.5t22.5 -100q0 -53 -17 -92t-46 -70.5t-65.5 -58t-75.5 -53.5q47 -29 90 -59.5t74.5 -67.5t51 -84.5t19.5 -106.5q0 -70 -27.5 -128t-74.5 -100t-108.5 -65.5 t-129.5 -23.5q-80 0 -145.5 32t-106.5 82t-55 114.5zM557 305q-2 -76 27.5 -124t75 -70.5t97.5 -20.5t97 24.5t74.5 66t29.5 102.5q0 92 -48 156.5t-119 115.5q-16 12 -36 23.5t-34 27.5q-39 -14 -69.5 -49t-51 -78t-32 -89t-11.5 -85zM592 983q0 -29 21.5 -74t54 -88 t68.5 -75.5t65 -36.5q41 29 67.5 74.5t39 96t10 101.5t-20.5 91t-52 65.5t-83 25.5q-37 0 -68.5 -14t-54.5 -39t-35 -57.5t-12 -69.5z" />
<glyph unicode=" "  horiz-adv-x="514" />
<glyph unicode="&#x09;" horiz-adv-x="514" />
<glyph unicode="&#xa0;" horiz-adv-x="514" />
<glyph unicode="!" horiz-adv-x="438" d="M174 1157q0 -70 10.5 -137.5t18.5 -134.5q37 -299 49 -609h51q4 154 17.5 304.5t31.5 302.5q8 66 18.5 134t10.5 136q0 12 -11.5 34.5t-26.5 46t-32.5 41t-29.5 17.5t-31 -16t-35 -39t-28.5 -45.5t-12.5 -34.5zM201 78q0 -45 24.5 -66.5t53.5 -21.5q31 0 55 22.5t24 65.5 t-24.5 64.5t-54.5 21.5q-29 0 -53.5 -21.5t-24.5 -64.5z" />
<glyph unicode="&#x22;" horiz-adv-x="729" d="M32 1110q-5 -35 13 -63.5t55 -28.5t47.5 14.5t12.5 31.5t4.5 29.5t25.5 6.5q41 -10 52.5 -50t-5 -87.5t-60.5 -88t-116 -51.5l2 -10q78 6 131.5 37t81 74t32.5 92t-12 90t-55 68.5t-96 27.5q-53 0 -80.5 -28.5t-32.5 -63.5zM420 1111q-4 -36 13.5 -64.5t58.5 -28.5 q33 0 43 14.5t13 31.5t7 29.5t27 6.5q41 -10 52 -50t-6.5 -87.5t-61.5 -88t-115 -51.5l4 -10q78 6 130 37t79.5 75t32.5 93t-12 90t-55 68.5t-95 27.5q-53 0 -82 -28.5t-33 -64.5z" />
<glyph unicode="#" horiz-adv-x="1327" d="M49 403q104 0 208.5 2.5t209.5 10.5q-4 -106 -7 -211t-3 -209h37q0 104 -2.5 208.5t-6.5 211.5l115 6l-115 8l-8 121l-8 -121q-209 6 -420 6v-33zM49 754q104 0 210 1t210 5l8 -121l8 121l115 8l-115 8q4 104 6.5 209t2.5 209h-37q0 -106 3 -209.5t7 -208.5 q-104 8 -208.5 10t-209.5 2v-34zM702 422l115 -6q-4 -106 -6 -211t-2 -209h39q0 104 -3 208.5t-7 211.5q104 -8 208.5 -10.5t208.5 -2.5l-2 33q-209 0 -417 -6l-11 121l-8 -121zM702 768l115 -8l8 -121l11 121q104 -4 208.5 -5t208.5 -1l2 34q-104 0 -208.5 -2t-208.5 -10 q4 104 7 207.5t3 210.5h-39q0 -104 2 -208.5t6 -209.5z" />
<glyph unicode="$" horiz-adv-x="989" d="M47 -76l10 -8l136 172q57 -41 124.5 -68.5t139.5 -31.5v-211h37v211q80 2 147.5 30.5t114.5 78.5t73.5 119t26.5 149q0 92 -27.5 152.5t-77 100t-116 64.5t-141.5 47v430q61 -8 105 -38.5t73.5 -75t46 -98.5t20.5 -109h21q-6 76 -6 129t9 101t26.5 97t41.5 119l-16 2 l-115 -153q-94 66 -206 81v164h-37v-161q-80 4 -142.5 -21t-105.5 -71t-65.5 -111.5t-22.5 -141.5q0 -84 26.5 -139t72.5 -93t107.5 -62.5t129.5 -45.5v-489q-74 6 -129.5 39t-95 82t-63.5 112.5t-32 131.5h-20q20 -135 10 -250t-80 -234zM227 952q0 47 18.5 86t50.5 67 t74 43t87 15v-424q-43 12 -84 27.5t-73 39t-52.5 58.5t-20.5 88zM494 41v479q45 -12 91 -28.5t85 -41t63.5 -62.5t24.5 -95q0 -55 -21.5 -100.5t-58.5 -79t-85 -52t-99 -20.5z" />
<glyph unicode="%" d="M-53 784q0 -127 46 -213t115.5 -129t149.5 -43q82 0 150.5 43t114.5 129t46 217q0 127 -46 211t-115.5 125t-150.5 40t-149.5 -44t-114.5 -127t-46 -209zM86 780q0 117 25.5 195t64.5 115.5t84 36.5t85 -38.5t65.5 -113.5t25.5 -189q0 -115 -25.5 -193.5t-64.5 -118.5 t-84 -41t-84 37t-65.5 115t-26.5 195zM430 0h66l534 1153h-61zM889 362q2 -129 48 -215t115.5 -128t149.5 -40.5t148.5 44.5t114.5 129t46 215q0 127 -46 211t-115.5 124.5t-150.5 39.5t-150.5 -44t-114.5 -127t-45 -209zM1026 360q0 172 54.5 258.5t119.5 86.5 q68 0 123 -85t55 -255q0 -115 -25.5 -193t-64.5 -118t-85 -41t-85 37t-65.5 115t-26.5 195z" />
<glyph unicode="&#x26;" horiz-adv-x="1282" d="M2 246q0 -59 21.5 -108.5t59.5 -84.5t89 -54t109 -19q109 0 200.5 53t163.5 131q70 -61 156 -112.5t184 -51.5q37 0 79 10t79 31.5t60.5 54.5t23.5 76q0 35 -22.5 61.5t-57.5 30.5q-33 4 -55.5 -13.5t-22.5 -51.5q0 -18 8 -31.5t19.5 -22t19.5 -14.5t8 -12 q0 -20 -11 -32.5t-26.5 -20t-35 -10.5t-33.5 -3q-41 0 -84 22.5t-82 54.5t-73 70t-56 68q16 27 47 87.5t66.5 123t73.5 109.5t69 47q27 0 30 -19.5t5 -43t13 -43t52 -19.5q29 0 49.5 22.5t20.5 51.5q0 66 -42 96.5t-101 30.5t-108.5 -45t-88.5 -108.5t-69.5 -132.5 t-51.5 -114q-121 162 -229 340q29 25 58.5 54.5t53 63.5t39 71t15.5 78t-13.5 78.5t-38 67.5t-60.5 48t-79 18q-61 0 -103 -20t-67.5 -56t-38 -83t-12.5 -103q0 -72 30.5 -140.5t59.5 -131.5q-49 -29 -101 -62.5t-97.5 -76.5t-74 -95.5t-28.5 -115.5zM143 305q0 41 16.5 78 t43 67.5t60.5 56t67 44.5q61 -98 125.5 -183t148.5 -169q-45 -59 -110.5 -92t-137.5 -33q-45 0 -84 20.5t-67.5 52t-45 73.5t-16.5 85zM315 965q0 66 38 93t84 21t84 -46.5t38 -110.5q0 -72 -40 -125.5t-87 -100.5q-14 23 -34.5 57.5t-39 72.5t-31 75t-12.5 64z" />
<glyph unicode="'" horiz-adv-x="364" d="M68.5 1110q-5.5 -35 13 -63.5t55.5 -28.5q35 0 45.5 14.5t13.5 31.5t6.5 29.5t26.5 6.5q39 -10 50.5 -50t-5 -87.5t-61.5 -88t-115 -51.5l2 -10q78 6 131.5 37t81 74t32.5 92t-12.5 90t-55 68.5t-95.5 27.5q-53 0 -80.5 -28.5t-33 -63.5z" />
<glyph unicode="(" horiz-adv-x="733" d="M117 453q0 -137 46 -259t124 -227.5t180 -191.5t213 -154l10 14q-193 156 -307.5 370t-114.5 466q0 117 30 226.5t85 206.5t135 178.5t182 138.5l-8 14q-119 -53 -223 -131t-183 -177.5t-124 -218t-45 -255.5z" />
<glyph unicode=")" horiz-adv-x="733" d="M41 1221q102 -57 182 -138.5t135.5 -178.5t84 -206.5t28.5 -226.5q0 -250 -112.5 -466t-307.5 -370l10 -14q111 68 213.5 154t180 191.5t124 227.5t46.5 259q0 135 -45 254.5t-124 219t-183.5 177.5t-223.5 131z" />
<glyph unicode="*" horiz-adv-x="876" d="M27 860q92 4 183 13.5t183 17.5q-92 2 -183 6t-183 8v-45zM121 623l33 -31q63 68 124.5 136t124.5 134q-72 -59 -143.5 -117.5t-138.5 -121.5zM125 1155q72 -59 141.5 -118.5t141.5 -118.5h-2q-63 68 -125 135t-125 135zM399 489h43q-4 92 -7 184.5t-7 184.5 q-6 -92 -15.5 -184t-13.5 -185zM401 1292q4 -92 13.5 -183t17.5 -183q2 92 5 183t7 183h-43zM455 862l252 -270l30 31q-70 61 -140.5 120.5t-141.5 118.5zM455 918q72 59 143 117.5t139 121.5l-32 31q-63 -68 -125 -136.5t-125 -133.5zM467 891q92 -8 183.5 -17.5 t183.5 -13.5v43q-92 -2 -183.5 -6t-183.5 -6z" />
<glyph unicode="+" horiz-adv-x="1327" d="M39 582q137 4 274.5 11t274.5 13q-137 8 -274.5 11.5t-274.5 9.5v-45zM621 0h47q-8 137 -11.5 274.5t-11.5 274.5q-6 -137 -13 -274.5t-11 -274.5zM625 1202q6 -137 9 -274t11 -275q6 137 13.5 274.5t11.5 274.5h-45zM709 606q137 -6 274 -13t274 -11v45 q-137 -6 -274 -9.5t-274 -11.5z" />
<glyph unicode="," horiz-adv-x="364" d="M15 92q-5 -35 13.5 -63.5t55.5 -28.5t47 15.5t12 33t5 28.5t26 5q41 -12 52.5 -53t-6 -88t-61.5 -87t-114 -49l2 -10q78 6 131 37t81 74t33 92t-12.5 90t-55.5 68.5t-95 27.5q-53 0 -81 -28.5t-33 -63.5z" />
<glyph unicode="-" horiz-adv-x="585" d="M74 342h424v119h-424v-119z" />
<glyph unicode="." horiz-adv-x="190" d="M10 78q0 -43 24.5 -65.5t53.5 -22.5q31 0 55.5 21.5t24.5 66.5q0 43 -24.5 64.5t-55.5 21.5q-29 0 -53.5 -21.5t-24.5 -64.5z" />
<glyph unicode="/" horiz-adv-x="804" d="M-6 -147l65 -3l678 1455h-63z" />
<glyph unicode="0" d="M80 457q2 -160 65.5 -265.5t158.5 -158.5t204.5 -52t205 54t158 159.5t62.5 266.5q0 158 -63.5 261t-159 154.5t-207 49.5t-206.5 -54.5t-157.5 -157t-60.5 -257.5zM262 453q0 111 21.5 192.5t56.5 136t79 81t91 26.5t91 -29t79 -82t56.5 -134t21.5 -185 q0 -145 -37 -243.5t-92.5 -149t-119 -51.5t-118.5 47.5t-92 145.5t-37 245z" />
<glyph unicode="1" horiz-adv-x="622" d="M31 4q137 4 274.5 2t274.5 -2v4l-179 45q-4 205 -2 407t7 406l174 31v12q-274 -12 -549 0v-10l182 -35q0 -205 3 -405.5t-7 -405.5l-178 -45v-4z" />
<glyph unicode="2" d="M89 633q11 -45 39 -75t67 -30q31 0 53 23.5t26 54.5q2 14 -2 27.5t-10 30.5q-18 31 -29 59q-12 29 -9 60.5t44 60.5q27 18 60.5 24t68.5 0t66 -21.5t53 -37.5q49 -47 67.5 -117.5t18.5 -136.5q0 -106 -41 -184t-107.5 -135.5t-150.5 -96.5t-172 -65l10 -70q31 2 88.5 5 t127 4t143.5 1q76 0 143.5 -1t121.5 -6t81 -11q23 90 48 177t52 177h-6q-66 -78 -121 -126t-102 -64q-23 -8 -48.5 -10.5t-58.5 -4.5h-170q53 47 110.5 103.5t104.5 120t78 132t31 140.5q0 68 -25.5 121t-68.5 90t-100.5 57.5t-120.5 20.5q-117 0 -192 -30t-116 -75t-52 -96 t0 -96z" />
<glyph unicode="3" d="M33 -194q-4 -42 16.5 -90t66.5 -90t118.5 -69.5t175.5 -27.5q92 0 181 22.5t158.5 70.5t111.5 122t42 178q0 86 -29.5 148.5t-81 106.5t-122 71.5t-150.5 44.5q55 31 107.5 65.5t94.5 76.5t66.5 93.5t24.5 116.5q0 96 -55.5 159.5t-139 94.5t-180 32t-180.5 -25.5 t-139.5 -80t-55.5 -131.5q0 -59 28 -83.5t59 -24.5q33 0 60.5 19.5t27.5 47.5q0 25 -5.5 42.5t-13.5 29.5q-8 16 -12 23q-6 8 -6 18q0 31 17.5 51.5t44 31.5t55 16t51.5 5q113 0 187.5 -70.5t74.5 -185.5q0 -86 -34 -150.5t-87 -113.5t-122 -85t-138 -62l14 -19 q72 33 144 33q100 0 167.5 -47t100.5 -117.5t31 -152.5t-40 -153t-114 -118t-191 -47q-23 0 -56.5 7.5t-66 21.5t-56 36.5t-23.5 51.5q0 16 7 30.5t16.5 29t17.5 28.5t8 33q0 35 -18.5 59.5t-55.5 24.5q-47 0 -72.5 -28t-29.5 -70z" />
<glyph unicode="4" d="M-20 39l18 -35q137 10 272.5 9t276.5 -1v-485h178l-4 483q59 0 116.5 -3t112.5 -5l23 135l-254 -4v563h-166v-565h-418q104 195 212 390.5t206 387.5h-80q-123 -219 -247 -435t-246 -435z" />
<glyph unicode="5" d="M65.5 -183q-6.5 -44 9 -95.5t56.5 -95.5t107.5 -72.5t162.5 -28.5q100 0 192.5 26.5t163 80t111.5 134t41 191.5q0 106 -33.5 186t-95 134.5t-146.5 82t-188 27.5q-18 0 -44.5 -6t-55.5 -15.5t-55.5 -21.5t-42.5 -25q0 104 5 205t7 203q59 0 110.5 -1t98.5 -1q47 2 85 6 t71 19q63 25 98 93t35 214l-13 -2q-4 -27 -12 -56.5t-31 -50.5q-10 -12 -45.5 -19t-86 -12.5t-106.5 -7.5t-110 -2q-53 0 -95 1t-62 3l2 -645l26 -12q29 29 77 45t89 16q78 0 139.5 -29.5t104.5 -80.5t65.5 -118t22.5 -140q0 -74 -21.5 -140.5t-63.5 -115.5t-103.5 -79 t-139.5 -30q-20 0 -57 5t-72 18.5t-58.5 36t-17.5 57.5q2 20 14.5 36.5t25 32t22.5 31t10 35.5q0 41 -25.5 62.5t-66.5 21.5q-45 0 -71.5 -28.5t-33 -72.5z" />
<glyph unicode="6" d="M35 541q0 -111 22.5 -212.5t74.5 -178t137 -122.5t210 -46q141 0 234.5 70.5t139.5 176t47 228.5t-43 228.5t-133 176t-220 70.5q-63 0 -120.5 -14.5t-115.5 -55.5q2 63 18.5 146.5t51.5 157t89 124.5t132 49q63 -2 88 -34.5t35 -90.5q4 -25 5 -50t9 -50q10 -31 41 -45 t61.5 -6t52 38t11.5 89q-8 53 -41 91t-78 61.5t-97 33.5t-101 10q-102 0 -179 -40.5t-133.5 -107.5t-94.5 -155t-61.5 -181t-32.5 -187t-9 -174zM223 453q0 104 20.5 185t55.5 137t79 87t91 35q47 2 92 -22.5t80 -79t55.5 -138t20.5 -198.5q0 -150 -37 -248t-91 -145.5 t-118.5 -46.5t-119 50.5t-91.5 145.5t-37 238z" />
<glyph unicode="7" d="M39 569l18 -12q14 23 31.5 48.5t39.5 50t46.5 43t52.5 26.5q39 10 110 13t148 3q78 -2 154 -3t125 -3q-31 -72 -78 -149.5t-82 -143.5q-61 -119 -123.5 -235.5t-126.5 -235.5q-33 -59 -65.5 -121.5t-59.5 -125.5q-25 -59 -18.5 -100.5t30 -65t59.5 -30.5t67.5 2t55 32.5 t23.5 60.5q0 20 -6 46t-26 34q-8 4 -19 4q-16 4 -36.5 8t-20.5 27q0 14 21.5 64.5t58.5 124t84 163.5t96 187q49 94 99.5 187t93.5 174t74.5 143.5t47.5 95.5l-24 30h-701q-33 -88 -70.5 -173t-78.5 -169z" />
<glyph unicode="8" d="M78 381q0 -100 37 -175t97 -124t137 -73.5t157 -24.5t155.5 25.5t134 75.5t92.5 124t30 172q-4 115 -58.5 191.5t-140.5 142.5q-29 20 -57.5 40.5t-63.5 43.5q53 33 103.5 68.5t88 78.5t61 94.5t23.5 116.5q0 104 -54 173t-136 102.5t-177 32.5t-177 -37.5t-137.5 -109.5 t-55.5 -179q0 -61 20.5 -119.5t57.5 -111t84 -96.5t100 -77q-63 -25 -121.5 -56.5t-102.5 -73.5t-70.5 -96t-26.5 -128zM244 373q0 117 55 192.5t150 139.5q55 -37 111 -81t100.5 -96.5t73 -114.5t28.5 -134q0 -53 -22.5 -100.5t-59.5 -81.5t-85 -53t-99 -19 q-70 0 -118 32.5t-78 84t-43 112.5t-13 119zM272 1223q0 49 18.5 86t49.5 61.5t72 36.5t86 12q72 0 116.5 -34.5t67.5 -90t23 -123.5t-18.5 -133t-54.5 -121.5t-83 -89.5q-45 37 -94 79t-89 91.5t-67 105.5t-27 120z" />
<glyph unicode="9" d="M56 456q1 -122 48.5 -226.5t141.5 -176t233 -73.5q63 -2 120.5 13t115.5 56q-2 -63 -18.5 -146t-51.5 -157t-89 -125t-132 -49q-63 2 -88 35t-35 90q-4 25 -5 50.5t-9 49.5q-10 31 -41 44.5t-61.5 5t-52 -38t-11.5 -87.5q8 -53 41 -91t78 -61.5t97 -33.5t101 -10 q100 0 176 41t129.5 109.5t88 156.5t55 182.5t28 187.5t7.5 171q0 109 -24 210t-76 179t-137 124t-208 44q-141 -2 -234 -72t-140.5 -175t-46.5 -227zM238 453q0 111 21.5 193.5t56 138t78.5 82t91 26.5t91.5 -28.5t79 -83t56 -135.5t21.5 -187q0 -145 -37 -243.5t-92 -149 t-118.5 -51.5t-119 47.5t-92 145.5t-36.5 245z" />
<glyph unicode=":" horiz-adv-x="190" d="M10 78q0 -43 24.5 -65.5t53.5 -22.5q31 0 55.5 21.5t24.5 66.5q0 43 -24.5 64.5t-55.5 21.5q-29 0 -53.5 -21.5t-24.5 -64.5zM16 575q0 -45 25 -66.5t53 -21.5q31 0 55.5 22.5t24.5 65.5t-24.5 66t-55.5 23q-29 0 -53.5 -21.5t-24.5 -67.5z" />
<glyph unicode=";" horiz-adv-x="352" d="M45 575q0 -43 24.5 -65.5t53.5 -22.5q31 0 55.5 21.5t24.5 66.5t-24.5 67t-55.5 22q-29 0 -53.5 -23t-24.5 -66zM46 92q-5 -35 13.5 -63.5t55.5 -28.5t47 15.5t12 31.5t5 28.5t26 6.5q41 -12 52 -53t-6.5 -88t-61.5 -87t-113 -49l2 -10q78 6 130 37t79.5 74t33 92t-11 90 t-54.5 68.5t-95 27.5q-53 0 -81 -28.5t-33 -63.5z" />
<glyph unicode="&#x3c;" horiz-adv-x="1034" d="M78 379l868 -393v116l-725 330l725 330v115l-868 -392v-106z" />
<glyph unicode="=" horiz-adv-x="1173" d="M14 311h1137v74h-1137v-74zM14 610h1137v76h-1137v-76z" />
<glyph unicode="&#x3e;" horiz-adv-x="1034" d="M88 -14l868 393v106l-868 392v-115l727 -330l-727 -330v-116z" />
<glyph unicode="?" horiz-adv-x="694" d="M35 987q0 -35 18.5 -66.5t45 -50t55 -17.5t51.5 36q25 39 12.5 56.5t-37 27.5t-49.5 19t-25 30q-2 51 27 87t72 55.5t95 21.5t96 -17.5t74 -61.5t30 -108q0 -51 -20.5 -90t-50.5 -76.5t-60.5 -81.5t-52 -107.5t-27.5 -152t16 -215.5h21q-16 96 1 160t53 110t82 83t87 79 t69.5 96t28.5 134q0 96 -45 160.5t-113.5 98.5t-147.5 37t-147.5 -23.5t-113.5 -82t-45 -141.5zM240 76q0 -43 24.5 -64.5t52.5 -21.5q31 0 55.5 21.5t24.5 64.5t-24.5 64.5t-55.5 21.5q-29 0 -53 -21.5t-24 -64.5z" />
<glyph unicode="@" horiz-adv-x="1372" d="M98 373q0 -125 47.5 -234.5t128 -190.5t190 -128t234.5 -47v45q-115 0 -216 43t-177 118.5t-119 177t-43 216.5t43 216t119 176t177.5 119t215.5 44q231 0 362.5 -131t131.5 -363q0 -92 -32 -164.5t-85 -136.5q-4 -4 -15 -16.5t-23.5 -25.5t-22.5 -23.5t-13 -10.5 q-16 0 -26 14.5t-10 30.5q0 68 1 135.5t3 135.5h96v8q-23 8 -47.5 14t-46.5 13v124q0 68 -23 123q-18 45 -62 73t-99.5 38t-115 3t-107.5 -29.5t-79.5 -61.5t-31.5 -92q0 -37 21.5 -55.5t48 -19.5t48 15.5t21.5 46.5q0 35 -19.5 55.5t-19.5 24.5q0 18 16.5 31.5t38 22 t44 12.5t36.5 4q76 0 105.5 -42t29.5 -112v-159q-59 -4 -132 -17.5t-137.5 -43.5t-108.5 -79t-44 -125t47.5 -116.5t120.5 -40.5q68 0 137.5 23.5t114.5 76.5q0 -51 35 -77.5t82 -26.5q63 0 118.5 51t95.5 123.5t62.5 149.5t22.5 126q0 125 -38 224.5t-107.5 169t-169 107.5 t-224.5 38t-234.5 -47t-190 -129t-128 -190.5t-47.5 -233.5zM554 153.5q-11 49.5 11.5 98.5t84 85t171.5 36v-232q-70 -70 -127 -79t-93 16.5t-47 75z" />
<glyph unicode="A" horiz-adv-x="1054" d="M-16 0q98 3 195 3t194 -3v12l-168 35l67 236q47 4 101.5 26.5t105.5 44.5q51 24 97 38q22 7 40 7q19 0 33 -8l113 -344l-148 -35v-12q117 4 234 4q119 0 235 -2v-2v12l-125 35q-109 297 -214 590t-205 592h-74q-53 -219 -117.5 -431t-124.5 -429q-9 -1 -17 -1 q-52 0 -74 22q-14 14 -15 42q0 22 10 53q-29 -49 -29 -92q0 -15 4 -29q14 -55 95 -75q-16 -61 -39 -120.5t-45 -119.5l-129 -37v-12zM305 397q37 137 77 272.5t81 270.5q43 -131 88 -261t90 -261q-20 29 -62 41t-75 12q-20 0 -47 -8t-54.5 -19.5t-53 -24.5t-44.5 -22z" />
<glyph unicode="B" horiz-adv-x="1021" d="M-20 -4q34 -2 69 -2l103 4q64 4 129 4h43h131q72 0 140.5 8t130.5 27.5t109.5 56.5t76 95.5t28.5 144.5t-35 141t-91 89t-127 49.5t-140 21.5q68 14 130 36.5t109.5 57.5t75.5 88q27 50 27 123v10q-2 70 -32 120t-78 82t-109.5 46t-122.5 14q-141 0 -279 -6 q-82 -4 -166 -4q-56 0 -112 2l2 -12l178 -43q-4 -164 -4 -329q0 -108 2 -218q4 -274 4 -549l-190 -41zM342 49v555q70 0 144.5 -9t137 -37t102.5 -82t40 -142q0 -86 -40 -140.5t-102.5 -87t-137 -45t-144.5 -12.5zM342 651q0 129 1 255t1 255h119q51 0 98 -15.5t83 -45 t56.5 -72.5t20.5 -98q0 -86 -33 -140.5t-86 -85t-120.5 -42t-139.5 -11.5z" />
<glyph unicode="C" horiz-adv-x="1130" d="M53 602q0 -117 36 -229.5t108.5 -199.5t184.5 -141.5t261 -54.5q90 0 174 29t156 86l86 -67l8 4q-11 85 -11 170q0 24 1 49q4 110 10 219h-18q-8 -82 -38 -159t-80 -137t-121 -96t-159 -36q-117 0 -191.5 52t-119.5 133t-62.5 180.5t-19.5 193.5v17q0 79 16 169 q18 100 61.5 185.5t115 142.5t178.5 57q184 0 280.5 -106.5t100.5 -284.5h18q-4 47 -4 94q0 54 5 106q9 100 26 198h-13l-67 -64q-86 66 -167 91.5t-187 25.5q-139 0 -245 -54.5t-177.5 -141.5t-108.5 -199.5t-37 -231.5z" />
<glyph unicode="D" horiz-adv-x="1214" d="M45 0h436q150 0 273 39t212 118t138 195.5t49 272.5q0 162 -46 273.5t-131 181t-207 99t-273 29.5q-111 0 -219.5 -3t-219.5 -3v-14l179 -35q5 -148 5 -297q1 -128 -3 -254q-6 -188 -6 -376q0 -89 1 -177l-188 -33v-16zM398 602q2 275 8 549h92q164 0 268 -81t154 -204 q46 -114 45 -243v-21q-4 -141 -58.5 -264t-157 -204t-247.5 -81h-94q-11 244 -11 488q1 30 1 61z" />
<glyph unicode="E" horiz-adv-x="1099" d="M12 0q61 4 123 4h125q180 0 360.5 -6t360.5 -8q4 100 10.5 199.5t18.5 199.5h-15q-16 -143 -70.5 -215t-136.5 -100q-76 -26 -171 -25h-15q-104 2 -217 4l-10 561q34 -1 66 -1q47 0 87 2h20q54 0 94 -13q48 -16 78 -64.5t44 -152.5h14q0 125 -2 249v62q0 93 4 187h-14 v-18q0 -81 -32 -123q-36 -46 -94 -63t-130 -17h-133l6 485q94 0 183 2h15q80 1 148 -19q74 -22 127 -78.5t76 -170.5h14q-4 85 -9 167q-2 32 -2 63q0 51 5 103q-189 -17 -377 -17q-37 0 -75 1q-224 4 -451 4v-14l170 -33q4 -276 4 -550.5t-4 -549.5l-195 -41v-14z" />
<glyph unicode="F" horiz-adv-x="989" d="M12 0q142 3 284 3t284 -3v12l-199 41l-4 561q34 -1 64 -1q45 0 85 2h20q54 0 95 -14q49 -17 80 -64.5t43 -151.5h14q-4 125 -4 248q0 125 6 250h-14q0 -96 -35 -141.5t-90 -62.5q-52 -16 -117 -16h-8h-47q-46 0 -92 -1l6 481q92 0 182 2h17q80 1 148 -17 q75 -20 129 -75.5t73 -171.5h12q-4 85 -6 167q-1 27 -1 55q0 56 3 114q-224 -16 -450 -19q-66 -1 -133 0q-159 0 -320 4v-18l170 -33q3 -274 3 -548.5t-3 -549.5l-195 -41v-12z" />
<glyph unicode="G" horiz-adv-x="1175" d="M70 602q0 -119 36.5 -231.5t108.5 -200.5t179.5 -142.5t250.5 -54.5q135 0 255 58.5t187 179.5v278l142 37v13q-127 0 -252 -2q-42 -1 -84 -1q-83 0 -168 3v-11l178 -39q0 -53 1 -104t1 -104q0 -90 -47 -149.5t-116 -81.5q-40 -13 -84 -13q-33 0 -69 7 q-83 17 -152.5 80.5t-117 177.5t-47.5 282q0 88 16.5 190.5t58.5 190.5t113.5 146t182.5 58q184 0 280.5 -106.5t100.5 -284.5h18q-3 43 -3 86q0 57 5 114q11 99 25 198h-12l-68 -64q-82 63 -164 91t-186 28q-143 0 -250.5 -54.5t-178.5 -142.5t-105.5 -200.5t-34.5 -231.5z " />
<glyph unicode="H" horiz-adv-x="1312" d="M-25 0q142 3 283 3l283 -3l-2 12l-197 35v531q145 4 291 4q145 0 291 -4v-531l-199 -35v-12q139 3 279 3t280 -3h-2v12l-192 35q-4 279 -5 553q0 276 5 555l192 37v10q-113 -3 -223 -3h-55q-138 1 -279 5v-12l199 -37v-516q-118 -3 -233 -3h-58q-144 1 -291 3v516l197 37 v10q-113 -3 -225 -3h-56q-140 1 -283 5v-12l195 -37q0 -279 2 -554q1 -92 1 -184q0 -184 -3 -370l-195 -35v-12z" />
<glyph unicode="I" horiz-adv-x="669" d="M47 0q141 0 281 2q47 1 94 1q94 0 188 -3v12l-194 35q-4 279 -4 553q0 276 4 555l194 37v10q-142 0 -282 -1h-56q-112 0 -225 3v-12l197 -37q5 -278 5 -554.5t-5 -553.5l-197 -35v-12z" />
<glyph unicode="J" horiz-adv-x="796" d="M37 166q0 -55 28.5 -94t76.5 -61.5t106 -28.5q21 -3 41 -3q38 0 77 9q60 12 112 41.5t87 79.5q33 47 49.5 117.5t22.5 147.5q5 66 5 130v22q-1 74 -1 131q-1 124 -1 248t1 248l193 37v10q-113 -3 -226 -3h-56q-142 1 -284 5v-12l191 -37q4 -121 6 -240.5t2 -240.5 q0 -41 2 -104q1 -43 1 -88v-47q-1 -71 -10 -141.5t-31.5 -128t-62.5 -93t-104 -35.5q-12 0 -26.5 2t-27.5 7t-22.5 14.5t-9.5 25.5q0 10 7 17.5t15.5 15.5t15.5 21.5t9 37.5v6q0 39 -25 62q-28 26 -64 28h-5q-33 0 -61 -22q-31 -25 -31 -84z" />
<glyph unicode="K" horiz-adv-x="1124" d="M10 0q139 3 278.5 3t280.5 -3v12l-186 35q-4 141 -8 280.5t-4 280.5q0 137 4 273.5t8 273.5l176 37v10q-108 -3 -215 -3h-53q-133 1 -268 5v-12l178 -37q4 -279 4 -555q0 -274 -4 -553l-191 -35v-12zM373 590q31 -2 66.5 -3t71.5 -6.5t68.5 -16.5t57.5 -32 q43 -37 60.5 -108.5t26.5 -157.5t18.5 -175t38 -161.5t84 -120t157.5 -47.5q63 0 97 27q35 27 45 59q5 16 5 31q1 15 -5 29q-10 26 -38 26q-37 0 -46 -19t-10 -43t-3 -43t-27 -19q-43 0 -62.5 34.5t-27.5 92t-10 131t-11 150.5t-32 150.5t-71 131t-129 92.5t-205 35 q111 139 223 271t241 253l156 39v14q-108 -3 -215 -3l-215 3v-12l174 -37q-117 -143 -239.5 -278.5t-243.5 -274.5v-12z" />
<glyph unicode="L" horiz-adv-x="1052" d="M4 0q145 11 290 11q98 0 194 -5q242 -12 483 -16q6 100 12 199.5t18 199.5h-14q-18 -143 -72.5 -215t-135.5 -100q-76 -26 -169 -25h-14q-102 2 -217 4q-8 212 -8 423q0 63 1 127q3 274 3 550l205 37v10q-116 -3 -230 -3h-58q-142 1 -288 5l2 -12l193 -37q0 -275 1 -549 v-110q0 -219 -3 -441l-193 -39v-14z" />
<glyph unicode="M" horiz-adv-x="1456" d="M-10 0q112 3 225 3t227 -3v12l-196 35q0 131 -3 262t-3 262q0 143 1 286.5t1 287.5q92 -287 184 -571.5t182 -573.5h39q96 287 188.5 573.5t188.5 573.5q6 -281 6 -557q0 -136 1 -272v-54q0 -109 -3 -217l-188 -35v-12q139 3 278.5 3t278.5 -3v12l-189 35q-4 277 -6 551 q-1 92 -1 183q0 184 3 368l191 41v12h-414q-72 -223 -144.5 -445t-148.5 -446q-72 223 -145.5 444.5t-139.5 446.5q-103 0 -203 -2q-33 -1 -67 -1q-67 0 -137 3v-12l184 -47q4 -275 6 -547q1 -91 1 -181q0 -182 -3 -366l-194 -37v-12z" />
<glyph unicode="N" horiz-adv-x="1208" d="M6 1190q49 -10 98.5 -20.5t96.5 -26.5q2 -147 5 -293q2 -87 2 -175q0 -59 -1 -118q-2 -129 -3 -255t-1 -255l-187 -35v-12q114 3 229 3t230 -3l2 12l-211 35l-8 1047q178 -274 352 -547t355 -547h88q-11 290 -13 576v74q0 250 15 503l190 37v10q-117 0 -233 -1h-46 q-93 0 -186 3v-12l201 -37l-2 -852q-147 227 -299 446.5t-283 454.5q-98 -3 -196 -3t-195 3v-12z" />
<glyph unicode="O" horiz-adv-x="1292" d="M70 608q0 -158 50 -275.5t132 -194.5q82 -78 186 -116q102 -38 208 -37h6q108 1 212.5 41t186.5 118.5t132 195t50 272.5q0 152 -50 266.5t-132 190.5t-186.5 115t-213.5 39t-213 -38t-186 -115t-132 -192.5t-50 -269.5zM279 604q0 195 54 324t136 193.5t178 65.5h3 q94 -1 175 -61q82 -62 136.5 -185.5t54.5 -309.5q0 -207 -54.5 -343t-136.5 -202q-80 -65 -174 -65q-2 0 -4 1q-96 2 -178 67t-136 195t-54 320z" />
<glyph unicode="P" horiz-adv-x="972" d="M10 0q142 3 284 3t284 -3v12l-201 35q-3 87 -3 175q0 44 1 87q2 131 2 262q35 -8 69.5 -13t69.5 -5q76 0 149.5 23.5t131 67.5t93.5 108.5t36 148.5v-2q0 72 -29 128t-77 95t-110.5 59.5t-129.5 20.5q-130 0 -260 -7q-44 -2 -86 -2q-87 0 -173 9l-4 -12l152 -41v-436 q-23 16 -41 36.5t-39 41.5l-6 -7q16 -35 36.5 -65.5t49.5 -54.5q0 -156 -2 -309.5t-2 -309.5l-195 -33v-12zM377 621v520q31 -2 61 -2h64q86 0 139 -40q53 -41 77 -99q21 -50 22 -108q0 -10 -1 -20q-4 -70 -34.5 -128t-86 -98t-133.5 -40q-29 0 -55.5 4t-52.5 11z" />
<glyph unicode="Q" horiz-adv-x="1292" d="M66 624v-22q0 -103 30 -202q33 -111 101.5 -200t173 -147.5t245.5 -68.5q-32 -41 -32 -87q0 -51 26 -91q25 -39 68 -65t94 -26q66 0 127.5 26t123.5 55.5t125.5 55t131.5 25.5t123 -28.5t99 -73.5t79 -100.5t64 -108.5h10q-29 74 -73 149.5t-103.5 137t-134 99.5 t-162.5 38q-23 0 -79 -20.5t-127 -46t-144.5 -47t-129.5 -21.5q-53 0 -78 29q-11 13 -11 35q0 27 16 67q150 0 263.5 52t188 139t113.5 198.5t40 227.5v6q0 113 -35 221q-36 112 -108.5 199t-181 140.5t-254.5 53.5q-143 0 -252.5 -51.5t-183.5 -135.5t-111.5 -191.5 t-41.5 -220.5zM279 604q0 195 54 324t136 193.5t178 65.5h3q94 0 175 -61q82 -61 136.5 -185t54.5 -310q0 -207 -54.5 -343t-136.5 -202q-80 -65 -174 -65q-2 0 -4 1q-96 1 -178 66.5t-136 195.5t-54 320z" />
<glyph unicode="R" horiz-adv-x="1028" d="M14 0q138 3 276 3t277 -3v12l-192 35q2 81 2 160q0 59 -1 119q-3 138 -3 280q39 -2 80 -5t79.5 -13t71.5 -30.5t58 -57.5q35 -55 45 -130t13 -155t7 -157.5t28.5 -139t78 -99.5t153.5 -38q20 0 45 5t46.5 16.5t36 29.5t18.5 43q1 8 1 15q0 24 -10 38q-14 18 -33.5 22.5 t-38 -4.5t-24.5 -28q-2 -8 -2 -22v-27q0 -14 -2 -26.5t-6 -16.5q-12 -14 -28.5 -9t-31 19t-25.5 30.5t-15 27.5q-20 45 -20 109v17q2 56 2 117v41q-1 84 -19.5 170t-81.5 160q-47 53 -115 80.5t-133 44.5q63 10 128.5 30.5t119 55.5t86.5 88t33 131t-32 130t-83 85 t-115.5 47t-132.5 14q-131 0 -261 -8q-87 -5 -175 -5q-44 0 -88 1v-16l170 -37q0 -273 4 -547q2 -109 2 -220q0 -164 -4 -329l-189 -41v-12zM369 1161h116q53 0 101.5 -15.5t84.5 -44t56.5 -72.5t20.5 -101q-2 -139 -87.5 -204t-214.5 -67l-73 -2q0 127 -1 253t-3 253z" />
<glyph unicode="S" horiz-adv-x="948" d="M47 -76l10 -8l136 172q101 -74 217 -92q40 -6 78 -7q72 0 138 23q100 35 165 124t65 229v-3q0 121 -46 188.5t-116.5 105.5t-151.5 58.5t-152 46t-117 67.5t-46 124q0 66 36 114q35 48 89 72q49 23 108 23h9q63 -2 120.5 -36.5t98.5 -105.5t51 -181h21q-6 76 -6 129 t9 100t25.5 97t42.5 120l-16 2l-115 -153q-94 66 -196 81q-31 5 -62 4q-67 0 -126 -23q-85 -34 -140 -115t-55 -208q0 -111 47 -174t117.5 -101t153.5 -59.5t154 -49t118 -71.5t47 -124q0 -82 -42 -139.5t-106 -85.5q-58 -26 -127 -26h-14q-76 3 -145.5 42t-120.5 119 t-66 205h-20q13 -89 13 -170q0 -41 -3 -79q-10 -116 -80 -235z" />
<glyph unicode="T" horiz-adv-x="1087" d="M16 797l15 -2q8 119 35.5 185.5t79 100t128 44t185.5 14.5v-1092l-201 -35v-12q148 3 295 3l295 -3v12l-203 35v1092h39q90 1 150 -7q72 -10 113.5 -45.5t60 -104.5t28.5 -187l19 2q-3 69 -3 137q0 34 1 66q2 100 2 204q-260 0 -516 -4q-85 -1 -171 -1q-172 0 -345 5 q6 -61 6 -122q-1 -40 -3 -82q-6 -104 -10 -203z" />
<glyph unicode="U" horiz-adv-x="1144" d="M-41 1192l184 -35q0 -168 1 -335t1 -335q0 -109 19.5 -203t68 -162.5t129 -107.5t203.5 -39q131 0 216 38t134.5 106.5t69 166t19.5 216.5q0 166 -1.5 327.5t-1.5 327.5l189 37v10q-112 -3 -224.5 -3t-224.5 3l2 -12l195 -35q2 -147 5 -293q1 -62 1 -125q0 -84 -2 -168 q-4 -96 -11 -191t-39 -170t-100.5 -122t-191.5 -47q-102 0 -159.5 49t-84 123t-32 161t-5.5 163q0 156 -1 310v103q0 103 1 207l218 37v10q-144 -3 -289 -3l-289 3v-12z" />
<glyph unicode="V" horiz-adv-x="1077" d="M-82 1192l156 -37q59 -154 118.5 -302t116.5 -302q55 -145 104.5 -291.5t98.5 -294.5h57q90 299 179.5 595t183.5 595l158 33v14q-112 0 -222 -1h-44q-88 0 -177 3v-12l207 -37q-59 -225 -128 -445.5t-136 -443.5q-84 223 -167 442.5t-151 448.5l195 35v12 q-137 -3 -274 -3t-275 3v-12z" />
<glyph unicode="W" horiz-adv-x="1419" d="M-100 1192l149 -35q106 -301 217 -595t209 -599h62q39 160 85 317.5t99 315.5q57 -160 112.5 -316.5t106.5 -316.5h47q72 305 167 598t187 592l156 41v10q-98 -3 -196.5 -3t-196.5 3v-12l172 -39q-66 -223 -134.5 -443.5t-133.5 -443.5q-78 223 -161 442.5t-149 448.5 l150 35v10h-948v-10zM246 1155q55 12 81.5 19.5t49.5 7.5t50.5 -7.5t82.5 -19.5l176 -463l-129 -426q-82 223 -161 443.5t-150 445.5z" />
<glyph unicode="X" horiz-adv-x="1038" d="M-16 0q104 3 208.5 3t208.5 -3v12l-170 35l283 459l246 -459l-170 -35v-12q132 3 264 3l264 -3v12l-157 35q-86 158 -174.5 310.5t-174.5 310.5q76 123 152 244.5t156 242.5l153 37v10q-103 0 -203 -2q-34 -1 -67 -1q-67 0 -135 3v-12l178 -37l-266 -428l-236 428l172 39 v10q-129 0 -258 -2q-43 -1 -86 -1l-172 3l2 -12l150 -37q82 -147 163.5 -294.5t163.5 -295.5l-164 -258t-168 -258l-163 -35v-12z" />
<glyph unicode="Y" horiz-adv-x="1054" d="M-63 1190l145 -37q8 -12 35.5 -58t63.5 -109.5t76 -134.5t74 -131.5t55.5 -102.5t21.5 -46v-524l-203 -35v-12q143 3 287 3t288 -3v12l-198 35v522q84 147 166.5 291t164.5 291l160 41v10q-100 0 -199 -2q-34 -1 -67 -1q-66 0 -133 3v-12l155 -37q-63 -133 -132.5 -259 t-141.5 -255l-268 514l162 39v10q-127 -3 -255 -3t-257 3v-12z" />
<glyph unicode="Z" horiz-adv-x="1099" d="M66 35l24 -35h78q39 0 80 2q63 1 126 1q110 0 221 -4q173 -7 347 -9q10 100 14.5 199.5t16.5 199.5h-15q-4 -37 -13 -77t-25.5 -78.5t-41 -71.5t-57.5 -53q-45 -29 -116.5 -41.5t-149.5 -15.5q-39 -2 -77 -2t-76 2q-76 3 -130 3l703 1119l-21 28q-208 0 -416 -2h-60 q-178 0 -357 10q-6 -94 -15.5 -187t-19.5 -187h20q12 90 36 149t64 95t102.5 51.5t154.5 15.5h311q-174 -283 -349 -559.5t-359 -552.5z" />
<glyph unicode="[" horiz-adv-x="530" d="M86 -403h406v16l-250 33v1562l245 33v14h-401v-1658z" />
<glyph unicode="\" horiz-adv-x="1478" d="M43 598q0 -145 55.5 -273t151.5 -223.5t223 -151.5t272 -56q143 0 272.5 55t224.5 151.5t151.5 223.5t56.5 272v2q0 143 -55.5 271t-151.5 224.5t-224 151.5t-271 55q-145 0 -273.5 -55t-223.5 -151.5t-151.5 -224.5t-56.5 -271zM160 252v43l137 2q10 154 7 308.5 t-3 307.5h-141v43q106 -6 213.5 -5t214.5 5v-43h-131q-6 -307 -6 -616l139 -2v-43q-109 0 -215.5 2t-214.5 -2zM637 600q0 80 28.5 149.5t79 122t119 82t148.5 29.5q76 0 140.5 -29.5t112.5 -81t75.5 -118t27.5 -140.5q0 -131 -54 -217t-135 -127t-178 -41q-94 0 -175 43 t-135 125t-54 203zM739 598q0 -104 39 -171t97.5 -97.5t128 -28.5t128 36t98.5 98.5t40 156.5q0 141 -68.5 228t-218.5 87q-61 0 -107.5 -28.5t-76 -72.5t-45 -99.5t-15.5 -108.5z" />
<glyph unicode="]" horiz-adv-x="530" d="M10 -387v-16h406v1658h-402v-14l246 -33v-1562z" />
<glyph unicode="^" horiz-adv-x="722" d="M25 1327l24 -33l305 183l305 -183l23 33l-326 289z" />
<glyph unicode="_" horiz-adv-x="514" />
<glyph unicode="`" horiz-adv-x="251" d="M1 1248.5q1 -15.5 6 -30t11 -26.5q45 -82 102.5 -160t110.5 -153l33 18q-35 78 -68.5 155.5t-66.5 155.5q-4 12 -14.5 30.5t-23.5 34t-29.5 24t-34.5 -0.5q-16 -6 -21.5 -19t-4.5 -28.5z" />
<glyph unicode="a" horiz-adv-x="780" d="M57 145q0 -76 47.5 -116.5t120.5 -40.5q68 0 137.5 23.5t114.5 76.5q0 -51 35 -77.5t82 -26.5q35 0 59.5 12t40 32.5t25.5 48t18 56.5h-14q-6 -23 -21.5 -49.5t-44.5 -26.5q-16 0 -26 14.5t-10 30.5q0 68 1 135.5t3 135.5h96v8q-23 8 -47.5 14t-46.5 13v124q0 68 -23 123 q-18 45 -62 73t-100 38q-33 6 -66 6q-24 0 -48 -3q-60 -7 -108 -29.5t-79.5 -61.5t-31.5 -92q0 -37 21.5 -55.5t48 -19.5t48 15.5t21.5 46.5q0 35 -19.5 55.5t-19.5 24.5q0 18 16.5 31.5t38 22t44 12.5t36.5 4q76 0 105.5 -42t29.5 -112v-159q-59 -4 -132 -17.5 t-137.5 -43.5t-108.5 -79t-44 -125zM210 154q-4 16 -4 32q0 33 16 66q22 49 84.5 85t170.5 36v-232q-70 -70 -127 -79q-15 -2 -28 -2q-38 0 -65 18q-36 26 -47 76z" />
<glyph unicode="b" horiz-adv-x="946" d="M-6 1202l2 -10l143 -23q2 -23 1 -43t-1 -43v-98v-129t1 -132.5t1 -102.5v-41l-11 -20q-11 -21 -26.5 -53t-34 -73t-32.5 -82l8 -4l88 133q-1 -73 -1 -145v-72v-43q0 -87 -3 -174l-119 -27v-10q66 -6 128.5 -12t125.5 -23l19 19v74q53 -43 115 -68q57 -23 120 -23h10 q117 2 196 61.5t119 147.5t41 190v6q0 100 -38 184q-39 87 -118 144.5t-200 57.5q-72 0 -131 -26.5t-112 -73.5q0 146 -2 294v50q0 123 8 245l-29 19q-72 -35 -131 -49.5t-137 -24.5zM283 119l2 481q35 43 90 78t112 35q76 0 127.5 -50.5t75.5 -126.5q24 -73 24 -157v-7 q-1 -89 -26.5 -165t-76 -126t-124.5 -50q-59 0 -109 23.5t-95 64.5z" />
<glyph unicode="c" horiz-adv-x="800" d="M64 374q2 -102 44 -189t125.5 -146t206.5 -62h5q192 0 296 162l-8 8q-57 -63 -112.5 -88.5t-141.5 -25.5q-68 0 -116 32.5t-78.5 83t-46 110.5t-15.5 118q0 55 11.5 116.5t39 113.5t72.5 86t113 34q12 0 35.5 -2t46 -9t38 -20.5t11.5 -33.5q-4 -18 -14.5 -34t-14.5 -34 q-2 -12 -2 -22q1 -26 15 -44q20 -24 61 -24q35 0 53.5 17.5t24.5 44t0 55t-21 51.5q63 53 133 90l-2 8q-41 -14 -81 -30.5t-76 -39.5q-41 35 -92.5 51.5t-104.5 16.5q-137 0 -227 -58.5t-134 -145.5q-43 -84 -44 -183v-7z" />
<glyph unicode="d" horiz-adv-x="976" d="M35 374q2 -102 44 -189t125 -145t206 -58q59 0 121.5 27.5t97.5 76.5v-92l39 -19q56 13 114 27q44 10 90 11q13 0 27 -1v17l-119 28v305l70 -98l6 6l-76 164q0 201 2 399.5t6 399.5l-30 18q-59 -39 -135 -45q-46 -4 -89 -4q-29 0 -57 2v-16l150 -35v-469 q-47 45 -108.5 64.5t-125.5 19.5q-123 0 -202.5 -58.5t-118.5 -145.5q-37 -83 -37 -180v-10zM199 362q0 125 31.5 200t78.5 110t103 37h11q50 -1 93 -17q47 -18 79 -49t32 -61v-435q-79 -108 -211 -108h-2q-57 0 -98.5 32.5t-67 82t-37.5 105.5t-12 103z" />
<glyph unicode="e" horiz-adv-x="843" d="M-16 502l88 -45q-7 -45 -7 -86q1 -63 17 -116q28 -89 81.5 -151.5t129.5 -96.5q74 -33 151 -33h4q80 1 157 39t134 118l-14 8q-53 -55 -101.5 -80.5t-125.5 -25.5q-78 0 -132.5 33.5t-87.5 89.5q-32 56 -46 124q-10 53 -10 105q0 16 1 31q59 -10 118.5 -16.5t119.5 -6.5 q39 0 93 5t102.5 22.5t82 50.5t33.5 88q0 66 -30.5 107t-79 63.5t-105.5 30.5t-108 8q-106 0 -192.5 -48t-141.5 -140q-10 -18 -21.5 -43t-15.5 -48l-90 25zM229 455q8 88 40 145t75 89t91 39q18 3 34 3q28 0 54 -8q40 -12 66.5 -44t26.5 -77q0 -63 -25.5 -95t-65.5 -45 t-87 -14.5t-92 -1.5q-29 0 -58.5 2.5t-58.5 6.5z" />
<glyph unicode="f" horiz-adv-x="548" d="M-20 -467v-10q106 0 212 1h42q84 0 169 -3v12l-135 35q1 51 1 102q0 103 -3 204l-8 306q-1 87 -1 174v86q1 129 1 260l213 25v16h-213q0 45 -1 119v11q0 68 11 133q13 71 46.5 122.5t103.5 51.5q43 0 59 -33q10 -23 9 -50.5t10 -50.5q10 -25 31.5 -34t43 -4.5t38 21.5 t16.5 48q0 41 -17.5 70t-45 47t-62.5 26.5t-72 8.5q-111 0 -174.5 -44t-95 -114t-39.5 -157t-8 -173h-101v-10l99 -27q3 -230 3 -455v-112q-1 -280 -3 -567z" />
<glyph unicode="g" horiz-adv-x="821" d="M41 162q0 -80 50 -124t126 -69.5t163 -41t162.5 -37t126 -56.5t50.5 -100q0 -51 -36 -84t-93.5 -54.5t-128 -31.5t-138 -14.5t-127 -5.5t-92.5 -3v-18h322q63 0 130 11t122 40t90 79t35 128q0 88 -50.5 140t-126 85t-163.5 50.5t-164 35t-126 41t-50 66.5q0 29 23.5 50 t46.5 34q35 -23 74.5 -31t80.5 -8q78 0 132.5 26.5t88 71.5t47.5 106q11 54 11 116v18q0 12 1 34.5t6 43t16.5 36t29.5 15.5q10 0 15 -14.5t12.5 -30t21.5 -26.5t45 -5q33 6 38 37q2 11 2 21q0 19 -7 36q-18 39 -52 51q-16 5 -31 5l-37 -7q-34 -14 -61.5 -48t-33.5 -81 q-55 72 -146 99q-57 18 -114 18q-32 0 -64 -6q-88 -15 -151.5 -74t-63.5 -162q0 -68 28 -123t77 -100q-41 -23 -79 -55.5t-38 -83.5zM193 510q0 109 46 162t101 53q57 0 103 -53.5t46 -155.5q0 -129 -46 -188q-44 -57 -97 -57h-5q-56 3 -102 64.5t-46 174.5z" />
<glyph unicode="h" horiz-adv-x="989" d="M29 0q100 3 200.5 3t200.5 -3v10l-121 37v559q14 20 41 39t56.5 34t60.5 24.5t55 9.5q57 0 88 -29t44.5 -71t14.5 -91t1 -90v-383l-121 -39v-10q96 3 192.5 3t194.5 -3v10l-117 37q2 96 2 191v192q0 78 -11 140.5t-42 106.5t-86 67.5t-143 23.5q-66 0 -124.5 -26.5 t-105.5 -71.5q0 141 2 281.5t8 281.5l-24 27q-61 -29 -129 -40.5t-135 -15.5l2 -16l125 -25v-651q0 -4 -10.5 -25.5t-22.5 -49t-24.5 -52.5l-16.5 -33l8 -4l66 101v-402l-129 -37v-10z" />
<glyph unicode="i" horiz-adv-x="477" d="M41 717l143 -23q6 -130 6 -259v-65q-2 -162 -6 -323l-129 -37v-10q100 3 201.5 3t202.5 -3v10l-119 37q0 185 -5 371q-1 55 -1 110q0 131 8 263l-29 18q-43 -25 -73.5 -37t-59 -20.5t-61.5 -12.5t-78 -12v-10zM170 1102q0 -49 31.5 -75t68.5 -26t69 26t32 75t-32 74.5 t-69 25.5t-68.5 -25.5t-31.5 -74.5z" />
<glyph unicode="j" horiz-adv-x="477" d="M-63 -432q0 -43 37 -64q30 -17 67 -17q10 0 21 1q51 6 104 41t84 104q27 59 40 149.5t19 195.5q5 91 5 188v32q-1 115 -3 227t-2 212q0 102 4 178l-28 19q-41 -23 -73 -36.5t-63.5 -20.5t-66.5 -13t-78 -12l2 -11l144 -22q10 -183 10 -365q0 -46 -1 -92q-1 -97 -1 -195 q0 -131 2 -262q0 -25 1 -61v-14q0 -28 -3 -56q-4 -36 -14.5 -68t-30.5 -48q-10 -8 -24.5 -11.5t-25.5 7.5q-4 4 0.5 15t4.5 15q-4 27 -26 42.5t-44 15.5q-25 0 -43 -17.5t-18 -56.5zM139 1102q0 -49 32 -75t69 -26t68.5 26t31.5 75t-32 74.5t-68 25.5q-37 0 -69 -25.5 t-32 -74.5z" />
<glyph unicode="k" horiz-adv-x="884" d="M12 0q98 3 197 3l197 -3v10l-107 37v782q0 102 2 203t10 203l-26 27q-59 -39 -128 -45.5t-137 -10.5l3 -16l122 -27q1 -281 3 -559q1 -60 0 -121q0 -218 -7 -438l-129 -35v-10zM301 387q41 -51 92 -117.5t109.5 -135t123 -135.5t133 -119t140.5 -84t143 -32 q25 0 51.5 6.5t47 20.5t34 35.5t13.5 50.5q0 27 -16.5 41t-37 15t-38 -10t-19.5 -34q0 -6 2 -18t4 -25.5t-2 -22.5t-16 -9q-39 0 -93 38.5t-115.5 99t-126 134.5t-122 145.5t-103.5 132t-73 93.5q27 33 66 80t82 90t90 73.5t94 30.5v10q-74 -4 -152 -4q-76 0 -149 4v-10 l112 -37q-66 -80 -135 -155.5t-139 -151.5z" />
<glyph unicode="l" horiz-adv-x="446" d="M20 0q100 3 201 3t203 -3v10l-121 37q-4 299 -4 592q0 295 14 594l-24 27q-63 -29 -131 -40.5t-135 -15.5v-16l127 -25v-1116l-130 -37v-10z" />
<glyph unicode="m" horiz-adv-x="1382" d="M25 0q102 3 203.5 3t203.5 -3v10l-123 37q-5 133 -5 266t5 267q14 18 38 40.5t51.5 43t56 34t53.5 13.5q39 0 61.5 -16.5t33.5 -42t14.5 -56.5t3.5 -61v-488l-121 -37v-10q98 3 195.5 3t195.5 -3v10l-123 37q0 270 -6 545q35 47 76 84t106 37q55 0 83 -30t39 -73t11 -92 v-86v-383l-121 -39v-10q96 3 193 3t194 -3v10l-116 37q-2 95 -2 190t2 191q0 74 -8.5 136.5t-36 107.5t-80.5 70.5t-141 25.5q-78 0 -123 -37t-88 -96q-27 74 -80.5 103.5t-128.5 29.5q-74 0 -131.5 -40t-102.5 -95v125l-18 14q-68 -12 -121 -17t-121 -10v-12l109 -31 q3 -111 3 -219q0 -55 -1 -109q-2 -162 -2 -327l-131 -37v-10z" />
<glyph unicode="n" horiz-adv-x="911" d="M20 0q100 3 201 3l201 -3v10l-121 37q-4 139 -5 279v57q0 112 3 223q14 20 40 39t55.5 34t60 24.5t55.5 9.5q57 0 88 -29t45 -71t17.5 -91t3.5 -90q0 -96 -1 -191.5t-1 -191.5l-119 -39v-10q96 3 192.5 3t194.5 -3v10l-117 37v191q0 96 -2 192q0 78 -11.5 140.5 t-42 106.5t-87 67.5t-144.5 23.5q-66 0 -122 -26.5t-103 -71.5q0 20 -1 40.5t3 41.5l-29 18q-61 -12 -116.5 -14t-116.5 -8v-15l109 -33v-653l-130 -37v-10z" />
<glyph unicode="o" horiz-adv-x="921" d="M61 377q2 -133 61.5 -222t148.5 -133.5t192 -44.5q102 0 191 45.5t147.5 134.5t58.5 222q0 131 -59.5 218t-148.5 130q-87 42 -189 42h-5q-104 -1 -193 -45t-147 -131q-57 -84 -57 -208v-8zM231 373q0 119 34 198.5t85 119.5t111 40q61 0 113.5 -40t88 -117.5 t35.5 -194.5t-33.5 -198t-85 -123t-111.5 -44h-6q-58 0 -108 36q-54 38 -88.5 119t-34.5 204z" />
<glyph unicode="p" horiz-adv-x="952" d="M0 328h18q29 35 58.5 67.5t58.5 67.5q3 -180 3 -358v-89q-1 -223 -1 -448l-129 -35v-10q106 0 210 1h42q83 0 168 -3v12l-137 35q-1 62 -1 124.5t1 124.5q1 41 1 83q0 83 -3 166q49 -35 105.5 -60.5t117.5 -25.5q123 0 207 58t127 146t45 190v9q0 96 -38 180 q-40 88 -123 146.5t-208 58.5q-66 0 -126 -29.5t-107 -72.5v88l-25 20q-12 -10 -43 -14t-67.5 -6t-70.5 -3t-52 -3v-15l104 -31l-2 -161q-35 -53 -68.5 -105.5t-64.5 -107.5zM289 119v475q16 20 40.5 40.5t52.5 38t57.5 29t56.5 11.5q74 0 125 -50.5t75.5 -127t24.5 -164.5 t-26.5 -165t-80 -127t-133.5 -50q-61 0 -103 27.5t-89 62.5z" />
<glyph unicode="q" horiz-adv-x="952" d="M48 368q1 -104 44 -192t129 -146q80 -55 200 -55h17q53 2 110.5 28t98.5 60q-1 -83 -1 -166v-81.5v-81.5q0 -83 -1 -166l-137 -33v-12q71 3 140 3q35 0 70 -1q103 -2 210 -2v10l-129 35q0 225 -1 448v89q0 178 3 358q29 -35 58.5 -68t58.5 -67h18q-29 57 -63.5 108 t-69.5 105l-2 161l104 31v15q-18 2 -52 3t-71 3t-67.5 6t-42.5 14l-25 -20v-84q-55 47 -116.5 74.5t-135.5 27.5q-115 0 -192.5 -60.5t-116.5 -149.5q-38 -87 -38 -188v-6zM219 367q0 88 24.5 164.5t76 127t129.5 50.5q59 0 111 -42t87 -85v-465q-41 -31 -97 -61.5 t-110 -30.5q-74 0 -123 50t-73.5 127t-24.5 165z" />
<glyph unicode="r" horiz-adv-x="679" d="M4 0q100 3 201 3l201 -3v10l-121 37q-1 51 -1 100v49q1 74 1 150v86q0 47 7 92t24.5 85t54.5 69q8 8 22.5 15t28.5 11.5t28.5 2.5t24.5 -13q14 -14 4 -42.5t-10 -47.5q0 -31 26.5 -46t58.5 -12t57.5 26.5t25.5 70.5q0 73 -46 105q-39 26 -88 27q-9 0 -19 -1 q-60 -6 -117.5 -45t-81.5 -104q0 31 -1 63.5t3 63.5l-29 18q-59 -12 -116.5 -17t-116.5 -5v-15l108 -33v-653l-129 -37v-10z" />
<glyph unicode="s" horiz-adv-x="630" d="M20 -88l7 -6l102 131q51 -31 88 -45.5t96 -14.5q117 0 187.5 67.5t70.5 186.5q0 76 -30.5 119t-76.5 67.5t-99.5 37t-99.5 28t-76.5 40t-30.5 75.5q0 49 25.5 80t65.5 43q28 8 59 8q13 0 26 -1q45 -5 85 -30.5t65.5 -71.5t25.5 -112h16q-3 36 -3 73t3 75q6 76 25 147 l-10 4l-64 -100q-59 45 -129 54q-21 3 -40 2q-48 -1 -90 -15q-60 -22 -101 -74.5t-41 -134.5q0 -76 30.5 -120t76.5 -68.5t100.5 -39t100.5 -32t75.5 -45t29.5 -80.5q0 -47 -27 -79q-26 -33 -67 -49q-34 -14 -73 -13q-8 1 -17 1q-49 4 -93 28t-79 71t-45 121h-12 q2 -49 2 -90q0 -39 -5 -78t-17.5 -77t-35.5 -83z" />
<glyph unicode="t" horiz-adv-x="548" d="M14 682h111q0 -111 -1 -217.5t-1 -216.5q0 -53 5 -102.5t23.5 -86t55.5 -59.5t102 -23q59 0 113.5 16.5t101.5 57.5v21q-27 -18 -57.5 -32.5t-61 -18t-58.5 10t-46 50.5q-20 39 -22.5 86t-2.5 90q0 106 -1 212v70q0 71 1 142h213v63l-210 -4v195h-48q-12 -51 -28.5 -89 t-41 -66.5t-60 -49t-87.5 -37.5v-12z" />
<glyph unicode="u" horiz-adv-x="925" d="M-2 731l117 -37q-1 -64 -1 -127v-62q1 -93 1 -190q0 -78 11 -141t43 -107t88 -67t144 -23q66 0 122.5 27t103.5 72v-41q0 -20 -2 -41l28 -19q59 12 116 14.5t116 8.5v14l-107 33q0 174 -1 347t-1 347q-54 -3 -108 -3h-28q-68 1 -134 5v-10l121 -37q3 -111 3 -222v-55 q-1 -138 -1 -278q-16 -20 -41 -38.5t-54.5 -34t-60.5 -24.5t-55 -9q-57 0 -88 28.5t-45.5 70.5t-17.5 90t-3 91q0 109 1 214.5t1 213.5q-68 -3 -135 -3t-133 3v-10z" />
<glyph unicode="v" horiz-adv-x="718" d="M-55 733l104 -39q74 -180 143.5 -362t129.5 -369h49q70 186 142.5 367.5t148.5 365.5l96 35v10q-70 -4 -142 -4q-70 0 -139 4v-8l119 -37q-47 -131 -99.5 -260t-105.5 -258l-184 516l121 37v10q-96 -3 -192 -3t-191 3v-8z" />
<glyph unicode="w" horiz-adv-x="1157" d="M-37 731l98 -39q68 -184 137.5 -365.5t129.5 -367.5h51q55 137 101 276.5t98 280.5q51 -139 101 -276.5t93 -278.5h55q61 186 126 366.5t132 364.5l121 37v10q-58 -3 -114 -3h-28q-70 1 -142 5v-12l102 -37q-41 -131 -87 -260t-93 -258q-49 141 -97.5 281.5t-89.5 283.5 h-57q-51 -145 -101 -288.5t-104 -286.5l-170 528l119 37v10q-96 0 -190 -1h-38q-76 0 -153 3v-10z" />
<glyph unicode="x" horiz-adv-x="831" d="M0 0q76 3 152 3t151 -3v10l-121 37l189 260l168 -260l-125 -37v-10q102 3 205 3t206 -3v10l-106 37l-256 383l199 264l120 37v10q-78 0 -152 -2q-24 -1 -49 -1q-50 0 -102 3v-10l111 -37q-39 -55 -77 -109.5t-79 -107.5l-141 217l123 37v10h-410v-8l111 -39 q59 -84 113.5 -168t109.5 -170l-231 -309l-109 -37v-10z" />
<glyph unicode="y" horiz-adv-x="772" d="M-37 731l100 -37q66 -180 132.5 -358t132.5 -359q-6 -16 -17.5 -51t-28 -78t-36 -88t-40 -82.5t-41 -62.5t-36.5 -25q-27 0 -26 20.5t-5 37.5q-10 25 -30.5 34t-43 4t-39 -22.5t-16.5 -48.5q0 -45 36 -69.5t77 -24.5q51 0 89 28.5t65.5 69.5t47 89t35.5 87l359 899 l100 37l2 10q-72 -4 -141 -4q-70 0 -141 4v-10l114 -37q-55 -131 -102 -264t-98 -266l-183 530l117 37v10q-77 -6 -153 -6h-39q-95 2 -191 6v-10z" />
<glyph unicode="z" horiz-adv-x="864" d="M76 27l18 -27q160 0 319.5 -3t319.5 -3q4 76 8.5 149.5t14.5 149.5h-13q-12 -113 -57 -167q-46 -54 -112 -72q-57 -16 -125 -16h-23q-82 3 -170 5l479 676l-16 22q-149 0 -297 -1h-43q-127 0 -254 5q-4 -72 -11.5 -140t-13.5 -140h15q14 104 51 153.5t93 67.5 q47 16 107 16h23q74 -4 162 -4q-119 -170 -235.5 -337.5t-239.5 -333.5z" />
<glyph unicode="{" horiz-adv-x="952" />
<glyph unicode="|" horiz-adv-x="952" d="M457 -532h39v2048h-39v-2048z" />
<glyph unicode="}" horiz-adv-x="1478" d="M35 598q0 -145 55 -273t151.5 -223.5t223.5 -151.5t272 -56q143 0 271.5 55t224.5 151.5t151.5 223.5t55.5 272q0 143 -55.5 272t-150.5 224.5t-223 151.5t-274 56q-145 0 -272 -55t-223.5 -151.5t-151.5 -224.5t-55 -271zM545 236v45h137q0 156 1 309t1 309h-139v43 q106 -6 213.5 -5t214.5 5v-43h-133q-4 -156 -4 -309v-309h137v-45q-109 0 -214.5 2t-213.5 -2z" />
<glyph unicode="~" horiz-adv-x="727" d="M45 1378l31 -16q37 43 71.5 57.5t67.5 10t65.5 -21.5t67.5 -35.5t71 -34t75 -15.5q35 0 62.5 16.5t50 41t41 53t34.5 53.5q-31 20 -40 15t-18.5 -19.5t-27.5 -29.5t-68 -15q-45 0 -85 18.5t-77.5 39t-74.5 35.5t-76 9t-81 -43t-89 -119z" />
<glyph unicode="&#xa1;" horiz-adv-x="438" d="M127 117q0 -12 11.5 -35t26.5 -46.5t32.5 -41t29.5 -17.5t30.5 16.5t35 39t29 45.5t12.5 35q0 70 -10.5 137t-18.5 137q-16 152 -30.5 302.5t-20.5 303.5h-49q-4 -152 -18.5 -302t-32.5 -302q-8 -68 -17.5 -136.5t-9.5 -135.5zM150 1194q0 -45 24.5 -67.5t52.5 -22.5 q31 0 55.5 22.5t24.5 67.5q0 43 -24.5 64.5t-55.5 21.5q-29 0 -53 -21.5t-24 -64.5z" />
<glyph unicode="&#xa2;" horiz-adv-x="770" d="M67.5 418q-8.5 -92 18.5 -177t86 -151.5t152 -95.5l-25 -154l55 -2l23 144q117 -12 208 20.5t156 136.5l-8 8q-57 -63 -112.5 -88.5t-141.5 -25.5q-51 0 -90 20l109 672q55 -6 72.5 -20.5t17.5 -32.5q0 -16 -11.5 -37t-15.5 -41q-8 -41 12.5 -65.5t61.5 -24.5 q35 0 53.5 17.5t24.5 44t0 55t-21 51.5q63 53 133 90l-2 8q-41 -14 -81 -30.5t-76 -39.5q-35 29 -76 45.5t-84 20.5l20 135h-53l-20 -133q-123 -4 -205 -54t-127 -127t-53.5 -169zM228.5 453.5q7.5 72.5 33 132t70 98.5t112.5 43l-104 -643q-43 37 -70.5 97.5t-38 130 t-3 142z" />
<glyph unicode="&#xa3;" horiz-adv-x="1024" d="M78 600l182 -35q25 -35 58.5 -74.5t64.5 -82.5t53.5 -88.5t24.5 -88.5q-100 27 -172 20t-116 -36t-60.5 -69t-6 -76.5t47 -63t98.5 -26.5q61 0 118.5 30.5t92.5 79.5q25 -16 55.5 -35.5t62 -36t64.5 -29t64 -12.5q35 0 77.5 19.5t82.5 50.5t73 65.5t47 65.5l-14 6 q-43 -61 -101.5 -73.5t-122 3t-125 46t-108.5 53.5q8 53 9 97t-5 85t-21.5 83t-39.5 89l188 33l-2 12h-215q-41 57 -81 122t-40 140q0 86 46 147.5t110.5 91.5t135.5 20.5t122 -64.5q2 -14 -4 -24.5t-14.5 -19.5t-15.5 -19.5t-7 -24.5q0 -41 22.5 -58.5t49 -16.5t49 19.5 t22.5 53.5q0 74 -48 121t-119.5 65.5t-156.5 7t-157 -56.5t-120 -125t-48 -196q0 -47 15.5 -92.5t31.5 -90.5h-147v-12zM158 98q0 41 35.5 57.5t70.5 16.5q41 0 80 -16t72 -41q-25 -43 -68 -64.5t-86 -22.5t-73.5 16t-30.5 54z" />
<glyph unicode="&#xa5;" horiz-adv-x="1513" d="M49 592q0 -145 55.5 -272t151.5 -223.5t223 -152t273 -55.5q143 0 272 55.5t224 152t151.5 223.5t56.5 272q0 143 -55 272t-151.5 224.5t-224.5 151.5t-271 56q-145 0 -273.5 -55t-223.5 -151.5t-151.5 -224.5t-56.5 -271v-2zM427 743.5q1 98.5 38 183.5t111.5 141 t189.5 58q100 2 167.5 -34.5t109.5 -99t60.5 -144.5t18.5 -168q0 -94 -18.5 -211t-64.5 -220.5t-124.5 -173t-199.5 -69.5q-109 0 -169.5 41t-80 90t-3 90t63.5 41q37 0 53.5 -16t22.5 -40t7 -52.5t8.5 -53t26 -41t61.5 -16.5q59 0 102 40t70.5 97.5t40 122t12.5 111.5 q-41 -29 -87 -41t-95 -12q-106 0 -177 56t-108 139t-36 181.5zM580 745q0 -123 29.5 -199.5t72.5 -112.5t93 -31.5t93 45t71 117.5t28 186q0 113 -30 188.5t-73 113.5t-94 38q-49 0 -92 -38t-70.5 -115t-27.5 -192z" />
<glyph unicode="&#xa6;" horiz-adv-x="679" d="M63 387l273 -340l-111 -37v-10q104 0 210 1t210 -1v10l-113 37l-337 410q27 33 65.5 80t81.5 90t90 74.5t94 31.5v10q-35 0 -71.5 -2t-71.5 -2q-41 0 -79 2t-79 0v-8l113 -37q-66 -80 -134.5 -155.5t-140.5 -153.5z" />
<glyph unicode="&#xa7;" horiz-adv-x="878" d="M76 395q0 -92 45 -143t111.5 -81t145.5 -47.5t145.5 -45t111.5 -73.5t45 -132q0 -113 -69.5 -187.5t-176.5 -97.5v-24q82 4 144.5 39t105.5 87t63.5 116.5t17.5 129t-30.5 124t-81.5 100.5q20 27 39 50t33 48t22.5 52.5t8.5 64.5q0 90 -42 139t-103.5 76.5t-135.5 45 t-135 43.5t-103 70t-42 125q0 86 33.5 143.5t85 88.5t109.5 38t109.5 -6.5t85 -47t33.5 -82.5q0 -35 -25.5 -40t-55 -7.5t-55.5 -12.5t-26 -53q0 -51 39 -71.5t87.5 -9.5t87 51t38.5 112q0 80 -48 132t-119.5 73.5t-154.5 13.5t-154.5 -50t-120 -117t-48.5 -187 q0 -74 29 -129.5t82 -104.5q-25 -14 -48.5 -37.5t-42 -53.5t-29.5 -60.5t-11 -61.5zM184 465q0 35 20.5 64.5t43.5 56.5q35 -23 89 -42.5t111.5 -42t109.5 -50t82 -65.5t30 -87t-47 -115q-43 20 -118 44t-145.5 56.5t-123 75.5t-52.5 105z" />
<glyph unicode="&#xa8;" horiz-adv-x="4" d="M43 1077q0 -43 24.5 -65.5t53.5 -22.5q31 0 55.5 21.5t24.5 66.5t-24.5 66.5t-55.5 21.5q-29 0 -53.5 -22.5t-24.5 -65.5zM342 1077q0 -45 24.5 -66.5t53.5 -21.5q31 0 55.5 22.5t24.5 65.5t-24.5 65.5t-55.5 22.5q-29 0 -53.5 -21.5t-24.5 -66.5z" />
<glyph unicode="&#xa9;" horiz-adv-x="1234" d="M61 532q0 -117 44.5 -220t121 -180t180 -121t220.5 -44t220 44t180 121t122 180t45 220t-45 220.5t-122 180.5t-180.5 122t-219.5 45q-117 0 -220.5 -45t-180 -122t-121 -180.5t-44.5 -220.5zM129 535q0 104 39 195t106.5 158.5t158.5 106.5t196 39q104 0 195 -39 t159 -106.5t106.5 -158.5t38.5 -195t-38.5 -195.5t-106.5 -159t-159 -106.5t-195 -39t-195.5 39t-159 106.5t-106.5 158.5t-39 196zM346 549q0 -80 34 -149.5t100.5 -115.5t164.5 -46q45 0 87 10t77 39l45 -35l4 2q-6 55 -4 112.5t4 114.5h-8q-12 -111 -74.5 -166 t-134.5 -49t-128 76t-56 209q0 94 27.5 154.5t69.5 92t90 35t90 -20.5t71 -71t31 -116h10q-4 53 0 104t12 105h-6l-35 -35q-45 35 -86 48t-96 13q-96 0 -160.5 -46t-96.5 -115.5t-32 -149.5z" />
<glyph unicode="&#xaa;" horiz-adv-x="952" d="M87 578.5q-11 -111.5 4 -219t62.5 -192.5t126 -136t195.5 -51q127 0 211 59t127 147t44 192.5t-39 192.5t-121 147.5t-201 59.5q-53 0 -101.5 -12t-91.5 -43q2 49 15.5 119.5t41 135t71.5 110t110 45.5q53 -2 72.5 -28t27.5 -73q4 -20 5 -42.5t7 -43.5q8 -29 36 -40 t54.5 -4t45 34t10.5 76q-8 45 -36 76.5t-66 52t-82 29t-85 8.5q-92 0 -168.5 -51.5t-134 -136.5t-93.5 -192.5t-47 -219zM266 375q0 115 30 195.5t75 123.5t97 48.5t97 -32.5t76 -119t31 -210q0 -121 -30 -202t-74 -122t-96 -42t-98 39t-77 120t-31 201z" />
<glyph unicode="&#xab;" horiz-adv-x="770" d="M-78 264q68 -66 138.5 -130t140.5 -130q37 -35 74.5 -71.5t78.5 -67.5l25 22q-66 92 -131.5 186.5t-136.5 184.5q72 90 135 185.5t131 187.5l-23 20q-53 -37 -103 -85t-97 -91q-59 -51 -119 -102t-113 -107v-2zM305 264q68 -66 138.5 -130t140.5 -130q37 -35 74.5 -71.5 t78.5 -67.5l25 22q-66 92 -131.5 186.5t-136.5 184.5q72 90 135 185.5t131 187.5l-23 20q-53 -37 -103 -85t-97 -91q-59 -51 -119 -102t-113 -107v-2z" />
<glyph unicode="&#xac;" horiz-adv-x="1830" d="M49 0q203 6 408 0v10l-123 37v533q14 18 37.5 40.5t51.5 43t56.5 34t52.5 13.5q39 0 61.5 -16.5t34 -42t14.5 -56.5t3 -61v-488l-121 -37v-10q195 6 391 0v10l-122 37q0 270 -7 545q35 47 77 84t108 37q55 0 81.5 -30t38 -73t11.5 -92v-86q2 -96 2 -192v-191l-121 -39 v-10q192 6 387 0v10l-117 37q-4 96 -3 190.5t1 190.5q0 74 -8 136.5t-35.5 107.5t-80 70.5t-140.5 25.5q-78 0 -124 -37t-89 -96q-27 74 -80 103.5t-129 29.5q-74 0 -131 -40t-102 -95v125l-19 14q-35 -6 -63.5 -10t-56 -7t-57.5 -5t-64 -5v-12l108 -31q4 -164 4 -327 q0 -164 -4 -328l-131 -37v-10zM1257 387q41 -51 92.5 -117.5t109 -135t122 -135.5t133 -119t139 -84t144.5 -32q55 0 89 23t48 51.5t7 55t-34 36.5q-23 10 -46 -2t-27 -39q-2 -6 1 -19t4 -25.5t-2 -21.5t-18 -9q-39 0 -92 38.5t-114.5 99t-126 134.5t-122 145.5t-103.5 132 t-72 93.5q27 33 65.5 80t81.5 90t90 73.5t94 30.5v10q-74 -4 -151 -4q-76 0 -150 4v-10l113 -37q-66 -80 -135.5 -155.5t-139.5 -151.5z" />
<glyph unicode="&#xad;" horiz-adv-x="585" d="M74 342h424v119h-424v-119z" />
<glyph unicode="&#xae;" horiz-adv-x="1234" d="M61 532q0 -117 44.5 -220t121 -180t180 -121t220.5 -44t220 44t180 121t122 180t45 220t-45 220.5t-122 180.5t-180.5 122t-219.5 45q-117 0 -220.5 -45t-180 -122t-121 -180.5t-44.5 -220.5zM129 535q0 104 39 195t106.5 158.5t158.5 106.5t196 39q104 0 195 -39 t159 -106.5t106.5 -158.5t38.5 -195t-38.5 -195.5t-106.5 -159t-159 -106.5t-195 -39t-195.5 39t-159 106.5t-106.5 158.5t-39 196zM371 283h286v6l-100 16q2 68 1 134.5t-1 133.5l45 -2q63 -4 90 -34.5t33 -74.5t3 -95.5t3 -95.5t33 -72.5t92 -28.5q23 0 47.5 11t28.5 38 q2 16 -5 26.5t-16.5 12.5t-19.5 -2t-12 -14q-4 -10 -3 -25.5t-4 -21.5q-6 -6 -14 -4t-16 9t-13.5 16t-7.5 13q-12 31 -10 70t3 80t-6 82t-38 78q-23 27 -57.5 34t-65.5 15q33 6 64.5 18t57.5 32.5t41 49.5t15 66q-2 70 -54 98.5t-125 33.5t-146.5 -1t-118.5 -4v-9l86 -18 q0 -137 3 -272.5t-1 -272.5l-98 -20v-6zM555 860h59q57 0 89 -39t32 -88q0 -47 -33.5 -88t-107.5 -45l-37 -2q0 66 -1 131.5t-1 130.5z" />
<glyph unicode="&#xaf;" horiz-adv-x="1644" d="M236 -193h223q0 135 50 253t137 207t205 141.5t253 54.5v-592l385 692l-385 717v-592q-180 -2 -339 -71.5t-276.5 -189.5t-185 -279.5t-67.5 -340.5z" />
<glyph unicode="&#xb0;" horiz-adv-x="514" d="M10 877q0 -80 36 -132.5t89 -78t116.5 -26.5t117 25.5t89.5 79t36 132.5t-36 132t-89.5 78.5t-116.5 26.5t-116.5 -26.5t-89.5 -79t-36 -131.5zM72 881q0 57 26.5 97t66.5 59.5t85 19.5q47 0 87 -19.5t66.5 -58.5t26.5 -98t-26.5 -98.5t-66.5 -58.5t-87 -19q-45 0 -85 19 t-66.5 58t-26.5 99z" />
<glyph unicode="&#xb1;" horiz-adv-x="1513" d="M63 596q0 -145 55.5 -273t152 -223.5t223.5 -152t272 -56.5q143 0 272 55.5t224.5 152t151.5 223.5t56 272v2q0 143 -55 271t-151.5 224.5t-224.5 151.5t-271 55q-145 0 -273 -55t-223.5 -151.5t-152 -224.5t-56.5 -271zM397 506q0 63 7.5 138t26 149.5t49 144.5 t75.5 124t106.5 87t143.5 33q109 0 169 -41t79.5 -91.5t2 -91t-62.5 -40.5q-37 0 -53 16t-21.5 39.5t-7.5 52.5t-9 53.5t-26.5 41t-60.5 16.5q-61 0 -103 -39t-70 -96.5t-40 -121t-12 -112.5q41 29 87 41t95 12q106 0 177 -56t107 -140t35 -183.5t-39 -183.5t-112 -140.5 t-186 -56.5q-100 0 -168 36t-110 97.5t-60.5 142.5t-18.5 169zM553 438q0 -113 28.5 -188.5t71.5 -114.5t93.5 -40t93.5 37t70.5 115.5t27.5 194.5q0 121 -28.5 199t-71.5 114t-93.5 30.5t-92.5 -46.5t-70.5 -116.5t-28.5 -184.5z" />
<glyph unicode="&#xb2;" horiz-adv-x="307" d="M66 571l12 -96q119 -143 176 -330l22 7q-16 63 -34.5 118.5t-43 105.5t-57 98t-75.5 97z" />
<glyph unicode="&#xb3;" horiz-adv-x="438" d="M-229 -131q29 -66 71.5 -122t96 -99t119 -67.5t139.5 -24.5q76 0 141 25.5t122.5 67.5t104.5 97.5t84 116.5l-8 6q-86 -104 -201.5 -166.5t-253.5 -62.5q-127 0 -235.5 61t-171.5 172z" />
<glyph unicode="&#xb4;" horiz-adv-x="0" d="M-166 897l33 -18q53 78 109.5 154.5t103.5 158.5q23 39 17.5 68.5t-26 37t-49 -12t-53.5 -77.5z" />
<glyph unicode="&#xb5;" horiz-adv-x="952" d="M51 578q0 -96 21.5 -202t71 -195t128 -147.5t195.5 -58.5q106 0 180 61.5t121 152t68.5 194.5t21.5 190q0 203 -59.5 338.5t-149.5 203t-194.5 66.5t-194.5 -67.5t-149.5 -201t-59.5 -334.5zM219 547q0 41 4 99.5t13.5 123t28 128t47 113.5t69.5 81.5t98 31.5 q78 0 133.5 -61.5t91 -146.5t52 -176t16.5 -152q0 -68 -12 -163t-45 -182t-90.5 -148.5t-147.5 -61.5q-84 0 -134 57t-77.5 139t-37 169t-9.5 149z" />
<glyph unicode="&#xb6;" horiz-adv-x="927" d="M-31 969q0 -90 30 -163t84 -124t128 -79t164 -28v-370q0 -49 -3 -124t-21.5 -145.5t-57.5 -121t-111 -47.5q14 25 16.5 50t-7 46.5t-30 35t-50.5 13.5q-47 0 -74 -33t-17.5 -72.5t59.5 -72.5t154 -33q168 0 268.5 64.5t155 169t71.5 236.5t17 267q0 139 -2 275.5 t-2 275.5q0 39 2 95.5t16.5 108.5t46.5 88t89 36v39h-338q-102 0 -206.5 -12.5t-189.5 -52.5t-138.5 -116.5t-53.5 -205.5zM287 -242q57 35 90 115t48 185.5t17 231.5t0 255t-3 254t5.5 229.5t25.5 180t60 108.5h166q-47 -41 -65.5 -125t-21.5 -194.5t3 -241.5t7.5 -263.5 t-8 -257t-44.5 -227t-100.5 -173.5t-175.5 -91z" />
<glyph unicode="&#xb7;" horiz-adv-x="284" d="M70 500q0 -43 27.5 -66.5t60 -24.5t60.5 22.5t28 72.5q0 41 -28 61.5t-60 20.5q-33 0 -60.5 -21.5t-27.5 -64.5z" />
<glyph unicode="&#xb8;" horiz-adv-x="1468" d="M25 588q0 -145 55 -273.5t151.5 -223.5t223.5 -151.5t272 -56.5q143 0 271 56.5t224.5 151.5t152 223.5t55.5 273.5q0 143 -55.5 271t-152 224.5t-224.5 151.5t-271 55q-145 0 -272 -55t-223.5 -151.5t-151.5 -224.5t-55 -271zM404.5 254q19.5 45 74.5 43 q29 -2 45.5 -20.5t16.5 -47.5t-19.5 -49t-19.5 -43q0 -20 18.5 -36.5t43 -27t51 -16.5t42.5 -6q82 0 134.5 48t75 118t16.5 146.5t-43 132t-101.5 77t-158.5 -19.5l-13 22q53 18 105.5 46t93.5 66t66.5 88t25.5 114q0 86 -56.5 142t-142.5 56q-14 0 -35.5 -4t-41 -13 t-33.5 -22.5t-14 -31.5q0 -20 13 -34.5t13 -35.5q0 -33 -15.5 -59.5t-51.5 -24.5q-35 2 -53.5 25.5t-18.5 56.5q0 49 29.5 87t73.5 63.5t95.5 38t92.5 12.5q53 0 105 -14.5t94 -43t68 -73t26 -105.5q0 -53 -19.5 -92t-50.5 -70.5t-70 -56t-80 -47.5q109 -25 172.5 -81 t86 -126.5t8 -147.5t-60.5 -140.5t-122.5 -104.5t-177.5 -41q-123 0 -191.5 47t-92 103.5t-4 101.5z" />
<glyph unicode="&#xb9;" horiz-adv-x="288" d="M45 571l12 -96q119 -143 176 -330l23 7q-16 63 -34.5 118.5t-43 105.5t-57.5 98t-76 97z" />
<glyph unicode="&#xba;" horiz-adv-x="952" d="M92 879h39q2 6 10.5 20t17.5 28.5t18 28t13 17.5q10 10 26.5 15t29.5 5q117 0 234.5 1t234.5 -5q-29 -78 -69 -161t-83 -165.5t-87 -164.5t-83 -156q-4 -10 -21.5 -43t-38 -71t-35.5 -70.5t-17 -38.5q-12 -59 16.5 -91t68.5 -36t75.5 19.5t35.5 72.5q0 35 -11 45 t-26.5 13t-30 5.5t-18.5 20.5q-4 12 27 79.5t78 164t104 208t110.5 214t94.5 182t55 110.5l-18 27h-631q-25 -72 -55.5 -139.5t-63.5 -134.5z" />
<glyph unicode="&#xbb;" horiz-adv-x="770" d="M41 -113l25 -22q41 31 78.5 67.5t74.5 71.5q70 66 140.5 130t138.5 130v2q-53 55 -112.5 106.5t-119.5 102.5q-47 43 -97 91t-103 85l-23 -20q66 -94 130.5 -188.5t135.5 -184.5q-72 -90 -137.5 -184t-130.5 -187zM424 -113l25 -22q41 31 78.5 67.5t74.5 71.5 q70 66 140.5 130t138.5 130v2q-53 55 -112.5 106.5t-119.5 102.5q-47 43 -97 91t-103 85l-23 -20q68 -92 131.5 -187.5t134.5 -185.5q-72 -90 -137.5 -184t-130.5 -187z" />
<glyph unicode="&#xbc;" horiz-adv-x="364" d="M15 -112.5q5 -34.5 33 -63.5t81 -29q57 0 95 27.5t55.5 68.5t12.5 90.5t-33 92.5t-81 73.5t-131 36.5l-2 -10q70 -10 114 -49t61.5 -86t6 -88t-52.5 -53q-23 -6 -26 5t-5 28.5t-12 33t-47 15.5t-55.5 -29t-13.5 -63.5z" />
<glyph unicode="&#xbd;" horiz-adv-x="1327" d="M49 446h225q20 -94 65.5 -179t117 -149.5t169 -102.5t222.5 -38q186 0 330 115l86 -67l8 4q-14 109 -10 219t10 219h-19q-8 -82 -36.5 -159t-79 -137t-121 -96t-160.5 -36q-92 0 -158.5 33.5t-111.5 91t-72 131.5t-39 151h711l8 58h-725q-6 49 -6 94v41q0 20 2 43h756 l8 59h-756q10 76 36 153t70 138.5t106.5 99t148.5 37.5q184 0 280 -106.5t100 -284.5h19q-8 100 2 199.5t25 198.5h-13l-67 -64q-84 63 -166 90t-189 27q-119 0 -213 -40t-163.5 -106.5t-113.5 -154.5t-63 -187h-180l-8 -59h180q-6 -45 -5 -89t5 -89h-207z" />
<glyph unicode="&#xbe;" horiz-adv-x="335" d="M41 291l20 -21q74 176 209 312l21 94q-174 -160 -250 -385z" />
<glyph unicode="&#xbf;" horiz-adv-x="694" d="M47 270q0 -96 45 -160.5t113.5 -98.5t147.5 -37t147.5 24t113.5 83t45 140q0 35 -18 66.5t-45 50t-56.5 16.5t-50.5 -35q-12 -20 -10 -43.5t23 -37.5q10 -6 24.5 -9.5t28.5 -7.5t23.5 -11t9.5 -24q0 -51 -29 -88t-72 -55t-94 -20.5t-95 18t-73.5 61.5t-29.5 107 q0 51 20.5 90t50 77t60 82t52 107.5t28 151.5t-16.5 215h-20q16 -94 -1.5 -157.5t-52 -110t-82 -83t-88.5 -78.5t-69.5 -96.5t-28.5 -136.5zM297 1135q0 -43 24.5 -65.5t53.5 -22.5q31 0 55.5 21.5t24.5 66.5t-24.5 66.5t-55.5 21.5q-29 0 -53.5 -22.5t-24.5 -65.5z" />
<glyph unicode="&#xc0;" horiz-adv-x="1054" d="M-16 0q195 6 389 0v12l-168 35l67 236q47 4 101.5 26.5t105.5 45t96.5 37t73.5 -0.5l113 -344l-148 -35v-12q117 4 234 4q119 0 235 -2v-2v12l-125 35q-109 297 -214 590t-205 592h-74q-53 -219 -117.5 -431t-124.5 -429q-66 -4 -91.5 21.5t-4.5 94.5q-39 -66 -25.5 -121 t95.5 -75q-16 -61 -39 -120.5t-45 -119.5l-129 -37v-12zM305 397q37 137 77 272.5t81 270.5q43 -131 88 -261t90 -261q-20 29 -62 41t-75 12q-20 0 -47 -8t-54.5 -19.5t-53 -24.5t-44.5 -22zM378 1580.5q1 -15.5 6 -30t11 -26.5q45 -82 102.5 -160t110.5 -153l33 18 q-35 78 -68.5 155.5t-66.5 155.5q-4 12 -14.5 30.5t-23.5 34t-29.5 24t-34.5 -0.5q-16 -6 -21.5 -19t-4.5 -28.5z" />
<glyph unicode="&#xc1;" horiz-adv-x="1054" d="M-16 0q195 6 389 0v12l-168 35l67 236q47 4 101.5 26.5t105.5 45t96.5 37t73.5 -0.5l113 -344l-148 -35v-12q117 4 234 4q119 0 235 -2v-2v12l-125 35q-109 297 -214 590t-205 592h-74q-53 -219 -117.5 -431t-124.5 -429q-66 -4 -91.5 21.5t-4.5 94.5q-39 -66 -25.5 -121 t95.5 -75q-16 -61 -39 -120.5t-45 -119.5l-129 -37v-12zM305 397q37 137 77 272.5t81 270.5q43 -131 88 -261t90 -261q-20 29 -62 41t-75 12q-20 0 -47 -8t-54.5 -19.5t-53 -24.5t-44.5 -22zM375 1264l33 -18q53 78 109.5 154.5t103.5 158.5q23 39 17.5 68.5t-26 37t-49 -12 t-53.5 -77.5z" />
<glyph unicode="&#xc2;" horiz-adv-x="1054" d="M-16 0q195 6 389 0v12l-168 35l67 236q47 4 101.5 26.5t105.5 45t96.5 37t73.5 -0.5l113 -344l-148 -35v-12q117 4 234 4q119 0 235 -2v-2v12l-125 35q-109 297 -214 590t-205 592h-74q-53 -219 -117.5 -431t-124.5 -429q-66 -4 -91.5 21.5t-4.5 94.5q-39 -66 -25.5 -121 t95.5 -75q-16 -61 -39 -120.5t-45 -119.5l-129 -37v-12zM23 1261l24 -33l305 183l305 -183l23 33l-326 289zM305 397q37 137 77 272.5t81 270.5q43 -131 88 -261t90 -261q-20 29 -62 41t-75 12q-20 0 -47 -8t-54.5 -19.5t-53 -24.5t-44.5 -22z" />
<glyph unicode="&#xc3;" horiz-adv-x="1054" d="M-16 0q195 6 389 0v12l-168 35l67 236q47 4 101.5 26.5t105.5 45t96.5 37t73.5 -0.5l113 -344l-148 -35v-12q117 4 234 4q119 0 235 -2v-2v12l-125 35q-109 297 -214 590t-205 592h-74q-53 -219 -117.5 -431t-124.5 -429q-66 -4 -91.5 21.5t-4.5 94.5q-39 -66 -25.5 -121 t95.5 -75q-16 -61 -39 -120.5t-45 -119.5l-129 -37v-12zM238 1321l28 -21q39 43 72 56.5t61.5 8.5t56.5 -21.5t56.5 -36t59 -34t67.5 -14.5q29 0 57.5 15.5t54 39t47 50t34.5 51.5h2l-31 23q-25 -27 -48.5 -45.5t-62.5 -18.5t-74.5 18.5t-70.5 38t-70.5 35t-73.5 9t-78 -41 t-87 -112.5zM305 397q37 137 77 272.5t81 270.5q43 -131 88 -261t90 -261q-20 29 -62 41t-75 12q-20 0 -47 -8t-54.5 -19.5t-53 -24.5t-44.5 -22z" />
<glyph unicode="&#xc4;" horiz-adv-x="1054" d="M-16 0q195 6 389 0v12l-168 35l67 236q47 4 101.5 26.5t105.5 45t96.5 37t73.5 -0.5l113 -344l-148 -35v-12q117 4 234 4q119 0 235 -2v-2v12l-125 35q-109 297 -214 590t-205 592h-74q-53 -219 -117.5 -431t-124.5 -429q-66 -4 -91.5 21.5t-4.5 94.5q-39 -66 -25.5 -121 t95.5 -75q-16 -61 -39 -120.5t-45 -119.5l-129 -37v-12zM281 1310q0 -43 24.5 -65.5t53.5 -22.5q31 0 55.5 21.5t24.5 66.5t-24.5 66.5t-55.5 21.5q-29 0 -53.5 -22.5t-24.5 -65.5zM305 397q37 137 77 272.5t81 270.5q43 -131 88 -261t90 -261q-20 29 -62 41t-75 12 q-20 0 -47 -8t-54.5 -19.5t-53 -24.5t-44.5 -22zM580 1310q0 -45 24.5 -66.5t53.5 -21.5q31 0 55.5 22.5t24.5 65.5t-24.5 65.5t-55.5 22.5q-29 0 -53.5 -21.5t-24.5 -66.5z" />
<glyph unicode="&#xc5;" horiz-adv-x="1054" d="M-16 0q195 6 389 0v12l-168 35l67 236q47 4 101.5 26.5t105.5 45t96.5 37t73.5 -0.5l113 -344l-148 -35v-12q117 4 234 4q119 0 235 -2v-2v12l-125 35q-109 297 -214 590t-205 592h-74q-53 -219 -117.5 -431t-124.5 -429q-66 -4 -91.5 21.5t-4.5 94.5q-39 -66 -25.5 -121 t95.5 -75q-16 -61 -39 -120.5t-45 -119.5l-129 -37v-12zM23 1192l24 -33l305 183l305 -183l23 33l-326 289zM305 397q37 137 77 272.5t81 270.5q43 -131 88 -261t90 -261q-20 29 -62 41t-75 12q-20 0 -47 -8t-54.5 -19.5t-53 -24.5t-44.5 -22z" />
<glyph unicode="&#xc6;" horiz-adv-x="1683" d="M-33 4q98 2 195 2q96 0 194 -4l6 14l-155 35l151 234q55 4 105.5 21.5t100.5 36.5t100.5 35.5t105.5 18.5q4 -174 -6 -346l-160 -35l-4 -12q117 4 234.5 2t234.5 -4v4q33 0 100.5 -3t139 -4t133.5 -1q63 0 90 6l12 19q10 92 14.5 183t14.5 183h-14q-16 -143 -72.5 -211.5 t-139.5 -94.5t-185.5 -23t-213.5 3l-10 551q76 6 127 0t83 -30.5t50.5 -71.5t28.5 -123l12 -2q-2 125 -2 248t4 248l-12 -2q4 -76 -17.5 -118t-60.5 -63.5t-92 -27.5t-113 -8q2 119 1 238.5t9 238.5q94 2 182.5 4t160 -17.5t124 -76t74.5 -170.5l12 4q-4 84 -9 164.5 t3 164.5q-225 -23 -450.5 -21.5t-452.5 7.5l-2 -14l172 -35v-115q-100 -170 -203.5 -337t-226.5 -324q-49 -6 -88 12q-2 29 7 54.5t26 47.5q-23 -23 -46.5 -49t-23.5 -61q0 -33 19.5 -54.5t50.5 -29.5q-37 -66 -82 -125t-90 -121l-140 -33zM432 399q78 135 165 264.5 t173 260.5v-498q-33 35 -77 41t-90 -4t-90 -29.5t-81 -34.5z" />
<glyph unicode="&#xc7;" horiz-adv-x="1200" d="M53 602q0 -117 36 -229.5t108.5 -199.5t184.5 -141.5t261 -54.5q90 0 174 29t156 86l86 -67l8 4q-14 109 -10 219t10 219h-18q-8 -82 -38 -159t-80 -137t-121 -96t-159 -36q-117 0 -191.5 52t-119.5 133t-62.5 180.5t-19.5 193.5q-2 86 16.5 185.5t61.5 185.5t114.5 143 t178.5 57q184 0 280.5 -106.5t100.5 -284.5h18q-8 100 1 199.5t26 198.5h-13l-67 -64q-86 66 -167 91.5t-187 25.5q-139 0 -245 -54.5t-177.5 -141.5t-108.5 -199.5t-37 -231.5zM548 -338q5 -35 32.5 -63.5t81.5 -28.5q57 0 95 27.5t55 68.5t12 90t-32.5 92t-81 74 t-130.5 37l-2 -10q70 -10 113.5 -49t61 -86t6.5 -88.5t-52 -53.5q-23 -6 -26 5.5t-5 29t-12.5 32.5t-47.5 15t-55 -28.5t-13 -63.5z" />
<glyph unicode="&#xc8;" horiz-adv-x="1099" d="M12 0q61 4 123 4h125q180 0 360.5 -6t360.5 -8q4 100 10.5 199.5t18.5 199.5h-15q-16 -143 -70.5 -215t-136 -99.5t-186 -25.5t-217.5 4l-10 561q86 -2 152.5 1t114.5 -13t78 -64.5t44 -152.5h14q0 125 -2 249t4 249h-14q4 -94 -32 -140.5t-94 -63.5t-130 -17h-133l6 485 q94 0 183 2t163 -19.5t127 -78t76 -170.5h14q-4 84 -9 166.5t3 166.5q-227 -20 -451.5 -16t-451.5 4v-14l170 -33q8 -551 0 -1100l-195 -41v-14zM400 1637.5q1 -15.5 6 -30t11 -26.5q45 -82 102.5 -160t110.5 -153l33 18q-35 78 -68.5 155.5t-66.5 155.5q-4 12 -14.5 30.5 t-23.5 34t-29.5 24t-34.5 -0.5q-16 -6 -21.5 -19t-4.5 -28.5z" />
<glyph unicode="&#xc9;" horiz-adv-x="1099" d="M12 0q61 4 123 4h125q180 0 360.5 -6t360.5 -8q4 100 10.5 199.5t18.5 199.5h-15q-16 -143 -70.5 -215t-136 -99.5t-186 -25.5t-217.5 4l-10 561q86 -2 152.5 1t114.5 -13t78 -64.5t44 -152.5h14q0 125 -2 249t4 249h-14q4 -94 -32 -140.5t-94 -63.5t-130 -17h-133l6 485 q94 0 183 2t163 -19.5t127 -78t76 -170.5h14q-4 84 -9 166.5t3 166.5q-227 -20 -451.5 -16t-451.5 4v-14l170 -33q8 -551 0 -1100l-195 -41v-14zM467 1264l33 -18q53 78 109.5 154.5t103.5 158.5q23 39 17.5 68.5t-26 37t-49 -12t-53.5 -77.5z" />
<glyph unicode="&#xca;" horiz-adv-x="1099" d="M12 0q61 4 123 4h125q180 0 360.5 -6t360.5 -8q4 100 10.5 199.5t18.5 199.5h-15q-16 -143 -70.5 -215t-136 -99.5t-186 -25.5t-217.5 4l-10 561q86 -2 152.5 1t114.5 -13t78 -64.5t44 -152.5h14q0 125 -2 249t4 249h-14q4 -94 -32 -140.5t-94 -63.5t-130 -17h-133l6 485 q94 0 183 2t163 -19.5t127 -78t76 -170.5h14q-4 84 -9 166.5t3 166.5q-227 -20 -451.5 -16t-451.5 4v-14l170 -33q8 -551 0 -1100l-195 -41v-14zM23 1315l24 -33l305 183l305 -183l23 33l-326 289z" />
<glyph unicode="&#xcb;" horiz-adv-x="1099" d="M12 0q61 4 123 4h125q180 0 360.5 -6t360.5 -8q4 100 10.5 199.5t18.5 199.5h-15q-16 -143 -70.5 -215t-136 -99.5t-186 -25.5t-217.5 4l-10 561q86 -2 152.5 1t114.5 -13t78 -64.5t44 -152.5h14q0 125 -2 249t4 249h-14q4 -94 -32 -140.5t-94 -63.5t-130 -17h-133l6 485 q94 0 183 2t163 -19.5t127 -78t76 -170.5h14q-4 84 -9 166.5t3 166.5q-227 -20 -451.5 -16t-451.5 4v-14l170 -33q8 -551 0 -1100l-195 -41v-14zM313 1386q0 -43 24.5 -65.5t53.5 -22.5q31 0 55.5 21.5t24.5 66.5t-24.5 66.5t-55.5 21.5q-29 0 -53.5 -22.5t-24.5 -65.5z M612 1386q0 -45 24.5 -66.5t53.5 -21.5q31 0 55.5 22.5t24.5 65.5t-24.5 65.5t-55.5 22.5q-29 0 -53.5 -21.5t-24.5 -66.5z" />
<glyph unicode="&#xcc;" horiz-adv-x="669" d="M47 0q141 0 281.5 2t281.5 -2v12l-194 35q-4 279 -4 553q0 276 4 555l194 37v10q-141 0 -281.5 -1t-281.5 3v-12l197 -37q10 -555 0 -1108l-197 -35v-12zM153 1658.5q1 -15.5 6 -30t11 -26.5q45 -82 102.5 -160t110.5 -153l33 18q-35 78 -68.5 155.5t-66.5 155.5 q-4 12 -14.5 30.5t-23.5 34t-29.5 24t-34.5 -0.5q-16 -6 -21.5 -19t-4.5 -28.5z" />
<glyph unicode="&#xcd;" horiz-adv-x="669" d="M47 0q141 0 281.5 2t281.5 -2v12l-194 35q-4 279 -4 553q0 276 4 555l194 37v10q-141 0 -281.5 -1t-281.5 3v-12l197 -37q10 -555 0 -1108l-197 -35v-12zM223 1272l33 -18q53 78 109.5 154.5t103.5 158.5q23 39 17.5 68.5t-26 37t-49 -12t-53.5 -77.5z" />
<glyph unicode="&#xce;" horiz-adv-x="669" d="M47 0q141 0 281.5 2t281.5 -2v12l-194 35q-4 279 -4 553q0 276 4 555l194 37v10q-141 0 -281.5 -1t-281.5 3v-12l197 -37q10 -555 0 -1108l-197 -35v-12zM48 1327l24 -33l305 183l305 -183l23 33l-326 289z" />
<glyph unicode="&#xcf;" horiz-adv-x="669" d="M47 0q141 0 281.5 2t281.5 -2v12l-194 35q-4 279 -4 553q0 276 4 555l194 37v10q-141 0 -281.5 -1t-281.5 3v-12l197 -37q10 -555 0 -1108l-197 -35v-12zM111 1386q0 -43 24.5 -65.5t53.5 -22.5q31 0 55.5 21.5t24.5 66.5t-24.5 66.5t-55.5 21.5q-29 0 -53.5 -22.5 t-24.5 -65.5zM410 1386q0 -45 24.5 -66.5t53.5 -21.5q31 0 55.5 22.5t24.5 65.5t-24.5 65.5t-55.5 22.5q-29 0 -53.5 -21.5t-24.5 -66.5z" />
<glyph unicode="&#xd0;" horiz-adv-x="514" />
<glyph unicode="&#xd1;" horiz-adv-x="1208" d="M6 1190q49 -10 98.5 -20.5t96.5 -26.5q2 -147 5 -292.5t1 -293.5q-2 -129 -3 -255t-1 -255l-187 -35v-12q229 6 459 0l2 12l-211 35l-8 1047q178 -274 352 -547t355 -547h88q-10 291 -12.5 576.5t14.5 576.5l190 37v10q-117 0 -232.5 -1t-232.5 3v-12l201 -37l-2 -852 q-147 227 -299 446.5t-283 454.5q-197 -6 -391 0v-12zM350 1333l28 -21q39 43 72 56.5t61.5 8.5t56.5 -21.5t56.5 -36t59 -34t67.5 -14.5q29 0 57.5 15.5t54 39t47 50t34.5 51.5h2l-31 23q-25 -27 -48.5 -45.5t-62.5 -18.5t-74.5 18.5t-70.5 38t-70.5 35t-73.5 9t-78 -41 t-87 -112.5z" />
<glyph unicode="&#xd2;" horiz-adv-x="1292" d="M70 608q0 -158 50 -275.5t132 -194.5t186.5 -115.5t213 -37.5t213 41t186.5 118.5t132 195t50 272.5q0 152 -50 266.5t-132 190.5t-186.5 115t-213.5 39t-213 -38t-186 -115t-132 -192.5t-50 -269.5zM279 604q0 195 54 324t136 193.5t178 65.5t178 -60.5t136.5 -185.5 t54.5 -310q0 -207 -54.5 -343t-136.5 -202t-178 -64.5t-178 67t-136 195.5t-54 320zM523 1666.5q1 -15.5 6 -30t11 -26.5q45 -82 102.5 -160t110.5 -153l33 18q-35 78 -68.5 155.5t-66.5 155.5q-4 12 -14.5 30.5t-23.5 34t-29.5 24t-34.5 -0.5q-16 -6 -21.5 -19t-4.5 -28.5z " />
<glyph unicode="&#xd3;" horiz-adv-x="1292" d="M70 608q0 -158 50 -275.5t132 -194.5t186.5 -115.5t213 -37.5t213 41t186.5 118.5t132 195t50 272.5q0 152 -50 266.5t-132 190.5t-186.5 115t-213.5 39t-213 -38t-186 -115t-132 -192.5t-50 -269.5zM279 604q0 195 54 324t136 193.5t178 65.5t178 -60.5t136.5 -185.5 t54.5 -310q0 -207 -54.5 -343t-136.5 -202t-178 -64.5t-178 67t-136 195.5t-54 320zM565 1315l33 -18q53 78 109.5 154.5t103.5 158.5q23 39 17.5 68.5t-26 37t-49 -12t-53.5 -77.5z" />
<glyph unicode="&#xd4;" horiz-adv-x="1292" d="M70 608q0 -158 50 -275.5t132 -194.5t186.5 -115.5t213 -37.5t213 41t186.5 118.5t132 195t50 272.5q0 152 -50 266.5t-132 190.5t-186.5 115t-213.5 39t-213 -38t-186 -115t-132 -192.5t-50 -269.5zM279 604q0 195 54 324t136 193.5t178 65.5t178 -60.5t136.5 -185.5 t54.5 -310q0 -207 -54.5 -343t-136.5 -202t-178 -64.5t-178 67t-136 195.5t-54 320zM344 1327l24 -33l305 183l305 -183l23 33l-326 289z" />
<glyph unicode="&#xd5;" horiz-adv-x="1292" d="M70 608q0 -158 50 -275.5t132 -194.5t186.5 -115.5t213 -37.5t213 41t186.5 118.5t132 195t50 272.5q0 152 -50 266.5t-132 190.5t-186.5 115t-213.5 39t-213 -38t-186 -115t-132 -192.5t-50 -269.5zM279 604q0 195 54 324t136 193.5t178 65.5t178 -60.5t136.5 -185.5 t54.5 -310q0 -207 -54.5 -343t-136.5 -202t-178 -64.5t-178 67t-136 195.5t-54 320zM361 1352l28 -21q39 43 72 56.5t61.5 8.5t56.5 -21.5t56.5 -36t59 -34t67.5 -14.5q29 0 57.5 15.5t54 39t47 50t34.5 51.5h2l-31 23q-25 -27 -48.5 -45.5t-62.5 -18.5t-74.5 18.5t-70.5 38 t-70.5 35t-73.5 9t-78 -41t-87 -112.5z" />
<glyph unicode="&#xd6;" horiz-adv-x="1292" d="M70 608q0 -158 50 -275.5t132 -194.5t186.5 -115.5t213 -37.5t213 41t186.5 118.5t132 195t50 272.5q0 152 -50 266.5t-132 190.5t-186.5 115t-213.5 39t-213 -38t-186 -115t-132 -192.5t-50 -269.5zM279 604q0 195 54 324t136 193.5t178 65.5t178 -60.5t136.5 -185.5 t54.5 -310q0 -207 -54.5 -343t-136.5 -202t-178 -64.5t-178 67t-136 195.5t-54 320zM430 1345q0 -43 24.5 -65.5t53.5 -22.5q31 0 55.5 21.5t24.5 66.5t-24.5 66.5t-55.5 21.5q-29 0 -53.5 -22.5t-24.5 -65.5zM729 1345q0 -45 24.5 -66.5t53.5 -21.5q31 0 55.5 22.5 t24.5 65.5t-24.5 65.5t-55.5 22.5q-29 0 -53.5 -21.5t-24.5 -66.5z" />
<glyph unicode="&#xd7;" horiz-adv-x="313" d="M41 291l20 -21q74 176 209 312l21 94q-174 -160 -250 -385z" />
<glyph unicode="&#xd8;" horiz-adv-x="1355" d="M66 598q0 -141 54 -256t152 -213l-139 -192l31 -35l153 190q72 -59 158 -89t178 -30v2q123 0 228.5 53.5t183.5 140.5t123 198.5t45 228.5q0 80 -12.5 143.5t-38 118.5t-64.5 107.5t-92 109.5l137 191l-37 30l-147 -182q-45 23 -86 43.5t-82 36.5t-85 25.5t-97 9.5 q-123 0 -225.5 -55.5t-178 -144.5t-117.5 -202.5t-42 -228.5zM276 578q0 98 10.5 202.5t48.5 191.5t111.5 142t200.5 55q86 0 154 -31.5t119 -103.5l-582 -813q-39 88 -50.5 174t-11.5 183zM375 166l579 811q43 -84 51.5 -178.5t8.5 -186.5q0 -94 -11.5 -195.5t-49.5 -186.5 t-109.5 -140t-192.5 -55q-76 0 -155.5 30.5t-120.5 100.5z" />
<glyph unicode="&#xd9;" horiz-adv-x="1144" d="M-41 1192l184 -35q0 -168 1 -335t1 -335q0 -109 19.5 -203t68 -162.5t129 -107.5t203.5 -39q131 0 216 38t134.5 106.5t69 166t19.5 216.5q0 166 -1.5 327.5t-1.5 327.5l189 37v10q-225 -6 -449 0l2 -12l195 -35q2 -147 5 -292.5t-1 -293.5q-4 -96 -11 -191t-39 -170 t-100.5 -122t-191.5 -47q-102 0 -159.5 49t-84 123t-32 161t-5.5 163q0 156 -1 310t1 310l218 37v10q-289 -6 -578 0v-12zM429 1649.5q1 -15.5 6 -30t11 -26.5q45 -82 102.5 -160t110.5 -153l33 18q-35 78 -68.5 155.5t-66.5 155.5q-4 12 -14.5 30.5t-23.5 34t-29.5 24 t-34.5 -0.5q-16 -6 -21.5 -19t-4.5 -28.5z" />
<glyph unicode="&#xda;" horiz-adv-x="1144" d="M-41 1192l184 -35q0 -168 1 -335t1 -335q0 -109 19.5 -203t68 -162.5t129 -107.5t203.5 -39q131 0 216 38t134.5 106.5t69 166t19.5 216.5q0 166 -1.5 327.5t-1.5 327.5l189 37v10q-225 -6 -449 0l2 -12l195 -35q2 -147 5 -292.5t-1 -293.5q-4 -96 -11 -191t-39 -170 t-100.5 -122t-191.5 -47q-102 0 -159.5 49t-84 123t-32 161t-5.5 163q0 156 -1 310t1 310l218 37v10q-289 -6 -578 0v-12zM596 1315l33 -18q53 78 109.5 154.5t103.5 158.5q23 39 17.5 68.5t-26 37t-49 -12t-53.5 -77.5z" />
<glyph unicode="&#xdb;" horiz-adv-x="1144" d="M-41 1192l184 -35q0 -168 1 -335t1 -335q0 -109 19.5 -203t68 -162.5t129 -107.5t203.5 -39q131 0 216 38t134.5 106.5t69 166t19.5 216.5q0 166 -1.5 327.5t-1.5 327.5l189 37v10q-225 -6 -449 0l2 -12l195 -35q2 -147 5 -292.5t-1 -293.5q-4 -96 -11 -191t-39 -170 t-100.5 -122t-191.5 -47q-102 0 -159.5 49t-84 123t-32 161t-5.5 163q0 156 -1 310t1 310l218 37v10q-289 -6 -578 0v-12zM334 1327l24 -33l305 183l305 -183l23 33l-326 289z" />
<glyph unicode="&#xdc;" horiz-adv-x="1144" d="M-41 1192l184 -35q0 -168 1 -335t1 -335q0 -109 19.5 -203t68 -162.5t129 -107.5t203.5 -39q131 0 216 38t134.5 106.5t69 166t19.5 216.5q0 166 -1.5 327.5t-1.5 327.5l189 37v10q-225 -6 -449 0l2 -12l195 -35q2 -147 5 -292.5t-1 -293.5q-4 -96 -11 -191t-39 -170 t-100.5 -122t-191.5 -47q-102 0 -159.5 49t-84 123t-32 161t-5.5 163q0 156 -1 310t1 310l218 37v10q-289 -6 -578 0v-12zM444 1335q0 -43 24.5 -65.5t53.5 -22.5q31 0 55.5 21.5t24.5 66.5t-24.5 66.5t-55.5 21.5q-29 0 -53.5 -22.5t-24.5 -65.5zM743 1335 q0 -45 24.5 -66.5t53.5 -21.5q31 0 55.5 22.5t24.5 65.5t-24.5 65.5t-55.5 22.5q-29 0 -53.5 -21.5t-24.5 -66.5z" />
<glyph unicode="&#xdd;" horiz-adv-x="514" />
<glyph unicode="&#xde;" horiz-adv-x="514" />
<glyph unicode="&#xdf;" horiz-adv-x="1024" d="M16 -477q72 2 144 2t143 -4q-6 76 -6 151l-2 672q0 43 -2 124t0 176t11 194.5t33.5 180.5t66.5 132t108 51q84 0 135 -48t51 -134q0 -63 -32.5 -108.5t-72.5 -87.5t-73 -87t-33 -106q0 -53 26 -96t63.5 -82t81.5 -73t81 -69t61.5 -70.5t22.5 -76.5q-4 -59 -52 -99 t-105 -40q-12 0 -38 5t-51.5 15t-44 24.5t-16.5 30.5q2 6 20.5 21.5t18.5 44.5t-24.5 44t-49.5 15q-33 0 -51 -20.5t-22 -50.5q-4 -53 34.5 -92t99 -60.5t132 -23t133 23.5t103.5 79t42 140q0 55 -26.5 100.5t-65.5 83t-86 71.5t-86 68t-65.5 69.5t-26.5 76.5q0 57 39 92 t87 67t87 73t39 110q0 55 -27.5 96t-70.5 68t-95.5 40t-99.5 13q-135 0 -216 -53t-124 -139t-56.5 -193.5t-13.5 -216.5v-1079l-127 -35z" />
<glyph unicode="&#xe0;" horiz-adv-x="780" d="M57 145q0 -76 47.5 -116.5t120.5 -40.5q68 0 137.5 23.5t114.5 76.5q0 -51 35 -77.5t82 -26.5q35 0 59.5 12t40 32.5t25.5 48t18 56.5h-14q-6 -23 -21.5 -49.5t-44.5 -26.5q-16 0 -26 14.5t-10 30.5q0 68 1 135.5t3 135.5h96v8q-23 8 -47.5 14t-46.5 13v124q0 68 -23 123 q-18 45 -62 73t-99.5 38t-115 3t-107.5 -29.5t-79.5 -61.5t-31.5 -92q0 -37 21.5 -55.5t48 -19.5t48 15.5t21.5 46.5q0 35 -19.5 55.5t-19.5 24.5q0 18 16.5 31.5t38 22t44 12.5t36.5 4q76 0 105.5 -42t29.5 -112v-159q-59 -4 -132 -17.5t-137.5 -43.5t-108.5 -79t-44 -125z M210 153.5q-11 49.5 11.5 98.5t85 85t170.5 36v-232q-70 -70 -127 -79t-93 16.5t-47 75zM253 1248.5q1 -15.5 6 -30t11 -26.5q45 -82 102.5 -160t110.5 -153l33 18q-35 78 -68.5 155.5t-66.5 155.5q-4 12 -14.5 30.5t-23.5 34t-29.5 24t-34.5 -0.5q-16 -6 -21.5 -19 t-4.5 -28.5z" />
<glyph unicode="&#xe1;" horiz-adv-x="780" d="M57 145q0 -76 47.5 -116.5t120.5 -40.5q68 0 137.5 23.5t114.5 76.5q0 -51 35 -77.5t82 -26.5q35 0 59.5 12t40 32.5t25.5 48t18 56.5h-14q-6 -23 -21.5 -49.5t-44.5 -26.5q-16 0 -26 14.5t-10 30.5q0 68 1 135.5t3 135.5h96v8q-23 8 -47.5 14t-46.5 13v124q0 68 -23 123 q-18 45 -62 73t-99.5 38t-115 3t-107.5 -29.5t-79.5 -61.5t-31.5 -92q0 -37 21.5 -55.5t48 -19.5t48 15.5t21.5 46.5q0 35 -19.5 55.5t-19.5 24.5q0 18 16.5 31.5t38 22t44 12.5t36.5 4q76 0 105.5 -42t29.5 -112v-159q-59 -4 -132 -17.5t-137.5 -43.5t-108.5 -79t-44 -125z M210 153.5q-11 49.5 11.5 98.5t85 85t170.5 36v-232q-70 -70 -127 -79t-93 16.5t-47 75zM326 897l33 -18q53 78 109.5 154.5t103.5 158.5q23 39 17.5 68.5t-26 37t-49 -12t-53.5 -77.5z" />
<glyph unicode="&#xe2;" horiz-adv-x="780" d="M57 145q0 -76 47.5 -116.5t120.5 -40.5q68 0 137.5 23.5t114.5 76.5q0 -51 35 -77.5t82 -26.5q35 0 59.5 12t40 32.5t25.5 48t18 56.5h-14q-6 -23 -21.5 -49.5t-44.5 -26.5q-16 0 -26 14.5t-10 30.5q0 68 1 135.5t3 135.5h96v8q-23 8 -47.5 14t-46.5 13v124q0 68 -23 123 q-18 45 -62 73t-99.5 38t-115 3t-107.5 -29.5t-79.5 -61.5t-31.5 -92q0 -37 21.5 -55.5t48 -19.5t48 15.5t21.5 46.5q0 35 -19.5 55.5t-19.5 24.5q0 18 16.5 31.5t38 22t44 12.5t36.5 4q76 0 105.5 -42t29.5 -112v-159q-59 -4 -132 -17.5t-137.5 -43.5t-108.5 -79t-44 -125z M88 876l24 -33l305 183l305 -183l23 33l-326 289zM210 153.5q-11 49.5 11.5 98.5t85 85t170.5 36v-232q-70 -70 -127 -79t-93 16.5t-47 75z" />
<glyph unicode="&#xe3;" horiz-adv-x="780" d="M31 918l28 -21q39 43 72 56.5t61.5 8.5t56.5 -21.5t56.5 -36t59 -34t67.5 -14.5q29 0 57.5 15.5t54 39t47 50t34.5 51.5h2l-31 23q-25 -27 -48.5 -45.5t-62.5 -18.5t-74.5 18.5t-70.5 38t-70.5 35t-73.5 9t-78 -41t-87 -112.5zM57 145q0 -76 47.5 -116.5t120.5 -40.5 q68 0 137.5 23.5t114.5 76.5q0 -51 35 -77.5t82 -26.5q35 0 59.5 12t40 32.5t25.5 48t18 56.5h-14q-6 -23 -21.5 -49.5t-44.5 -26.5q-16 0 -26 14.5t-10 30.5q0 68 1 135.5t3 135.5h96v8q-23 8 -47.5 14t-46.5 13v124q0 68 -23 123q-18 45 -62 73t-99.5 38t-115 3 t-107.5 -29.5t-79.5 -61.5t-31.5 -92q0 -37 21.5 -55.5t48 -19.5t48 15.5t21.5 46.5q0 35 -19.5 55.5t-19.5 24.5q0 18 16.5 31.5t38 22t44 12.5t36.5 4q76 0 105.5 -42t29.5 -112v-159q-59 -4 -132 -17.5t-137.5 -43.5t-108.5 -79t-44 -125zM210 153.5q-11 49.5 11.5 98.5 t85 85t170.5 36v-232q-70 -70 -127 -79t-93 16.5t-47 75z" />
<glyph unicode="&#xe4;" horiz-adv-x="780" d="M41 950q0 -43 24.5 -65.5t53.5 -22.5q31 0 55.5 21.5t24.5 66.5t-24.5 66.5t-55.5 21.5q-29 0 -53.5 -22.5t-24.5 -65.5zM57 145q0 -76 47.5 -116.5t120.5 -40.5q68 0 137.5 23.5t114.5 76.5q0 -51 35 -77.5t82 -26.5q35 0 59.5 12t40 32.5t25.5 48t18 56.5h-14 q-6 -23 -21.5 -49.5t-44.5 -26.5q-16 0 -26 14.5t-10 30.5q0 68 1 135.5t3 135.5h96v8q-23 8 -47.5 14t-46.5 13v124q0 68 -23 123q-18 45 -62 73t-99.5 38t-115 3t-107.5 -29.5t-79.5 -61.5t-31.5 -92q0 -37 21.5 -55.5t48 -19.5t48 15.5t21.5 46.5q0 35 -19.5 55.5 t-19.5 24.5q0 18 16.5 31.5t38 22t44 12.5t36.5 4q76 0 105.5 -42t29.5 -112v-159q-59 -4 -132 -17.5t-137.5 -43.5t-108.5 -79t-44 -125zM210 153.5q-11 49.5 11.5 98.5t85 85t170.5 36v-232q-70 -70 -127 -79t-93 16.5t-47 75zM340 950q0 -45 24.5 -66.5t53.5 -21.5 q31 0 55.5 22.5t24.5 65.5t-24.5 65.5t-55.5 22.5q-29 0 -53.5 -21.5t-24.5 -66.5z" />
<glyph unicode="&#xe5;" horiz-adv-x="796" d="M57 145q0 -76 47.5 -116.5t120.5 -40.5q68 0 137.5 23.5t114.5 76.5q0 -51 35 -77.5t82 -26.5q35 0 59.5 12t40 32.5t25.5 48t18 56.5h-14q-6 -23 -21.5 -49.5t-44.5 -26.5q-16 0 -26 14.5t-10 30.5q0 68 1 135.5t3 135.5h96v8q-23 8 -47.5 14t-46.5 13v124q0 68 -23 123 q-18 45 -62 73t-99.5 38t-115 3t-107.5 -29.5t-79.5 -61.5t-31.5 -92q0 -37 21.5 -55.5t48 -19.5t48 15.5t21.5 46.5q0 35 -19.5 55.5t-19.5 24.5q0 18 16.5 31.5t38 22t44 12.5t36.5 4q76 0 105.5 -42t29.5 -112v-159q-59 -4 -132 -17.5t-137.5 -43.5t-108.5 -79t-44 -125z M210 153.5q-11 49.5 11.5 98.5t85 85t170.5 36v-232q-70 -70 -127 -79t-93 16.5t-47 75zM233 928q0 -84 53.5 -126t116.5 -42t116.5 42t53.5 126t-53 126t-117 42q-63 0 -116.5 -42t-53.5 -126zM276 930q0 61 39 92t86 31q49 0 88 -31t39 -92q0 -63 -38.5 -94t-88.5 -31 q-47 0 -86 31.5t-39 93.5z" />
<glyph unicode="&#xe6;" horiz-adv-x="1206" d="M68 145q0 -74 46 -121t119 -47q84 0 154 40t129 94q45 -33 79 -57.5t67.5 -42t74.5 -26t103 -8.5q92 0 160.5 40t121.5 114l-14 8q-53 -55 -101.5 -79.5t-125.5 -26.5q-86 0 -134.5 33.5t-73 89t-30.5 124t-6 134.5q33 -6 83 -12.5t108.5 -7.5t117 6.5t104.5 24.5 t75.5 50t29.5 84q0 66 -30.5 107t-79 63.5t-105.5 30.5t-109 8q-66 0 -126 -18.5t-111 -59.5q-23 35 -67 55.5t-97 25.5t-108.5 -4t-100.5 -32.5t-73.5 -60.5t-28.5 -88q0 -37 21.5 -55.5t48 -19.5t48 15.5t21.5 46.5q0 35 -19.5 55.5t-19.5 24.5q0 18 16.5 31.5t38 22 t44 12.5t36.5 4q63 0 92 -33t39.5 -80t8.5 -101t-2 -97q-57 -4 -130 -18.5t-138.5 -45.5t-110.5 -80t-45 -123zM217 137q-16 47 4.5 96.5t85 90.5t182.5 53q0 -20 -1 -52t1.5 -67t5.5 -66t11 -47q-68 -72 -128.5 -85t-102.5 8.5t-58 68.5zM637 453q4 49 15.5 98t34 89 t61 64.5t98.5 24.5q61 0 107 -29.5t46 -97.5q0 -72 -37.5 -105.5t-94 -46t-119 -8.5t-111.5 11z" />
<glyph unicode="&#xe7;" horiz-adv-x="868" d="M64.5 374.5q1.5 -102.5 43.5 -189.5t125.5 -146t206.5 -62q195 -2 301 162l-8 8q-57 -63 -112.5 -88.5t-141.5 -25.5q-68 0 -116 32.5t-78.5 83t-46 110.5t-15.5 118q0 55 11.5 116.5t39 113.5t72.5 86t113 34q12 0 35.5 -2t46 -9t38 -20.5t11.5 -33.5q-4 -18 -14.5 -34 t-14.5 -34q-8 -41 12.5 -65.5t61.5 -24.5q35 0 53.5 17.5t24.5 44t0 55t-21 51.5q63 53 133 90l-2 8q-41 -14 -81 -30.5t-76 -39.5q-41 35 -92.5 51.5t-104.5 16.5q-137 0 -227 -58.5t-134.5 -145.5t-43 -189.5zM322.5 -338q5.5 -35 33 -63.5t80.5 -28.5q57 0 95 27.5 t55.5 68.5t12.5 90t-32.5 92t-81 74t-131.5 37l-2 -10q70 -10 114 -49t61.5 -86t6 -88.5t-52.5 -53.5q-23 -6 -25.5 5.5t-4.5 29t-12.5 32.5t-47.5 15t-55.5 -28.5t-13 -63.5z" />
<glyph unicode="&#xe8;" horiz-adv-x="843" d="M-16 502l88 -45q-18 -113 9.5 -202t81.5 -151.5t130 -96.5t155.5 -33t156.5 39t134 118l-14 8q-53 -55 -101.5 -80.5t-125.5 -25.5q-78 0 -132.5 33.5t-87 89t-46 124t-9.5 136.5q59 -10 118.5 -16.5t119.5 -6.5q39 0 93 5t102.5 22.5t82 50.5t33.5 88q0 66 -30.5 107 t-79 63.5t-105.5 30.5t-108 8q-106 0 -192.5 -48t-141.5 -140q-10 -18 -21.5 -43t-15.5 -48l-90 25zM229 455q8 88 40 145t75 89t91 39t88 -5t66.5 -44t26.5 -77q0 -63 -25.5 -95t-65.5 -45t-87 -14.5t-92 -1.5q-29 0 -58.5 2.5t-58.5 6.5zM302 1248.5q1 -15.5 6 -30 t11 -26.5q45 -82 102.5 -160t110.5 -153l33 18q-35 78 -68.5 155.5t-66.5 155.5q-4 12 -14.5 30.5t-23.5 34t-29.5 24t-34.5 -0.5q-16 -6 -21.5 -19t-4.5 -28.5z" />
<glyph unicode="&#xe9;" horiz-adv-x="843" d="M-16 502l88 -45q-18 -113 9.5 -202t81.5 -151.5t130 -96.5t155.5 -33t156.5 39t134 118l-14 8q-53 -55 -101.5 -80.5t-125.5 -25.5q-78 0 -132.5 33.5t-87 89t-46 124t-9.5 136.5q59 -10 118.5 -16.5t119.5 -6.5q39 0 93 5t102.5 22.5t82 50.5t33.5 88q0 66 -30.5 107 t-79 63.5t-105.5 30.5t-108 8q-106 0 -192.5 -48t-141.5 -140q-10 -18 -21.5 -43t-15.5 -48l-90 25zM229 455q8 88 40 145t75 89t91 39t88 -5t66.5 -44t26.5 -77q0 -63 -25.5 -95t-65.5 -45t-87 -14.5t-92 -1.5q-29 0 -58.5 2.5t-58.5 6.5zM395 897l33 -18 q53 78 109.5 154.5t103.5 158.5q23 39 17.5 68.5t-26 37t-49 -12t-53.5 -77.5z" />
<glyph unicode="&#xea;" horiz-adv-x="843" d="M-16 502l88 -45q-18 -113 9.5 -202t81.5 -151.5t130 -96.5t155.5 -33t156.5 39t134 118l-14 8q-53 -55 -101.5 -80.5t-125.5 -25.5q-78 0 -132.5 33.5t-87 89t-46 124t-9.5 136.5q59 -10 118.5 -16.5t119.5 -6.5q39 0 93 5t102.5 22.5t82 50.5t33.5 88q0 66 -30.5 107 t-79 63.5t-105.5 30.5t-108 8q-106 0 -192.5 -48t-141.5 -140q-10 -18 -21.5 -43t-15.5 -48l-90 25zM152 868l24 -33l305 183l305 -183l23 33l-326 289zM229 455q8 88 40 145t75 89t91 39t88 -5t66.5 -44t26.5 -77q0 -63 -25.5 -95t-65.5 -45t-87 -14.5t-92 -1.5 q-29 0 -58.5 2.5t-58.5 6.5z" />
<glyph unicode="&#xeb;" horiz-adv-x="843" d="M-16 502l88 -45q-18 -113 9.5 -202t81.5 -151.5t130 -96.5t155.5 -33t156.5 39t134 118l-14 8q-53 -55 -101.5 -80.5t-125.5 -25.5q-78 0 -132.5 33.5t-87 89t-46 124t-9.5 136.5q59 -10 118.5 -16.5t119.5 -6.5q39 0 93 5t102.5 22.5t82 50.5t33.5 88q0 66 -30.5 107 t-79 63.5t-105.5 30.5t-108 8q-106 0 -192.5 -48t-141.5 -140q-10 -18 -21.5 -43t-15.5 -48l-90 25zM41 950q0 -43 24.5 -65.5t53.5 -22.5q31 0 55.5 21.5t24.5 66.5t-24.5 66.5t-55.5 21.5q-29 0 -53.5 -22.5t-24.5 -65.5zM229 455q8 88 40 145t75 89t91 39t88 -5t66.5 -44 t26.5 -77q0 -63 -25.5 -95t-65.5 -45t-87 -14.5t-92 -1.5q-29 0 -58.5 2.5t-58.5 6.5zM340 950q0 -45 24.5 -66.5t53.5 -21.5q31 0 55.5 22.5t24.5 65.5t-24.5 65.5t-55.5 22.5q-29 0 -53.5 -21.5t-24.5 -66.5z" />
<glyph unicode="&#xec;" horiz-adv-x="477" d="M8 727l2 -10l144 -23q8 -162 6 -323.5t-6 -323.5l-129 -37v-10q200 6 403 0v10l-119 37q0 186 -5 371.5t7 372.5l-28 18q-43 -25 -74 -37t-59.5 -20.5t-61.5 -12.5t-80 -12zM64 1248.5q1 -15.5 6 -30t11 -26.5q45 -82 102.5 -160t110.5 -153l33 18q-35 78 -68.5 155.5 t-66.5 155.5q-4 12 -14.5 30.5t-23.5 34t-29.5 24t-34.5 -0.5q-16 -6 -21.5 -19t-4.5 -28.5z" />
<glyph unicode="&#xed;" horiz-adv-x="477" d="M8 727l2 -10l144 -23q8 -162 6 -323.5t-6 -323.5l-129 -37v-10q200 6 403 0v10l-119 37q0 186 -5 371.5t7 372.5l-28 18q-43 -25 -74 -37t-59.5 -20.5t-61.5 -12.5t-80 -12zM129 897l33 -18q53 78 109.5 154.5t103.5 158.5q23 39 17.5 68.5t-26 37t-49 -12t-53.5 -77.5z " />
<glyph unicode="&#xee;" horiz-adv-x="477" d="M-78 866l25 -32l305 182l305 -182l23 32l-326 289zM16 717l144 -23q12 -162 7 -323.5t-5 -323.5l-129 -37v-10q200 6 403 0v10l-119 37q-2 82 -2 164v164q-2 104 -4 207.5t6 208.5l-28 18q-43 -25 -74 -37t-59.5 -20.5t-61.5 -12.5t-78 -12v-10z" />
<glyph unicode="&#xef;" horiz-adv-x="477" d="M8 727l2 -10l144 -23q8 -162 6 -323.5t-6 -323.5l-129 -37v-10q200 6 403 0v10l-119 37q0 186 -5 371.5t7 372.5l-28 18q-43 -25 -74 -37t-59.5 -20.5t-61.5 -12.5t-80 -12zM41 950q0 -43 24.5 -65.5t53.5 -22.5q31 0 55.5 21.5t24.5 66.5t-24.5 66.5t-55.5 21.5 q-29 0 -53.5 -22.5t-24.5 -65.5zM340 950q0 -45 24.5 -66.5t53.5 -21.5q31 0 55.5 22.5t24.5 65.5t-24.5 65.5t-55.5 22.5q-29 0 -53.5 -21.5t-24.5 -66.5z" />
<glyph unicode="&#xf0;" horiz-adv-x="514" />
<glyph unicode="&#xf1;" horiz-adv-x="911" d="M20 0q201 6 402 0v10l-121 37q-4 139 -5 279.5t3 279.5q14 20 40 39t55.5 34t60 24.5t55.5 9.5q57 0 88 -29t45 -71t17.5 -91t3.5 -90q0 -96 -1 -191.5t-1 -191.5l-119 -39v-10q192 6 387 0v10l-117 37v191q0 96 -2 192q0 78 -11.5 140.5t-42 106.5t-87 67.5t-144.5 23.5 q-66 0 -122 -26.5t-103 -71.5q0 20 -1 40.5t3 41.5l-29 18q-61 -12 -116.5 -14t-116.5 -8v-15l109 -33v-653l-130 -37v-10zM31 918l28 -21q39 43 72 56.5t61.5 8.5t56.5 -21.5t56.5 -36t59 -34t67.5 -14.5q29 0 57.5 15.5t54 39t47 50t34.5 51.5h2l-31 23 q-25 -27 -48.5 -45.5t-62.5 -18.5t-74.5 18.5t-70.5 38t-70.5 35t-73.5 9t-78 -41t-87 -112.5z" />
<glyph unicode="&#xf2;" horiz-adv-x="921" d="M61 377q2 -133 61.5 -222t148.5 -133.5t192 -44.5q102 0 191 45.5t147.5 134.5t58.5 222q0 131 -59.5 218t-148.5 130t-193.5 42t-193.5 -45t-147.5 -131t-56.5 -216zM231 373q0 119 34 198.5t85 119.5t111 40q61 0 113.5 -40t88 -117.5t35.5 -194.5t-33.5 -198t-85 -123 t-111.5 -44t-113.5 36t-88.5 119t-35 204zM316 1248.5q1 -15.5 6 -30t11 -26.5q45 -82 102.5 -160t110.5 -153l33 18q-35 78 -68.5 155.5t-66.5 155.5q-4 12 -14.5 30.5t-23.5 34t-29.5 24t-34.5 -0.5q-16 -6 -21.5 -19t-4.5 -28.5z" />
<glyph unicode="&#xf3;" horiz-adv-x="921" d="M61 377q2 -133 61.5 -222t148.5 -133.5t192 -44.5q102 0 191 45.5t147.5 134.5t58.5 222q0 131 -59.5 218t-148.5 130t-193.5 42t-193.5 -45t-147.5 -131t-56.5 -216zM231 373q0 119 34 198.5t85 119.5t111 40q61 0 113.5 -40t88 -117.5t35.5 -194.5t-33.5 -198t-85 -123 t-111.5 -44t-113.5 36t-88.5 119t-35 204zM389 897l33 -18q53 78 109.5 154.5t103.5 158.5q23 39 17.5 68.5t-26 37t-49 -12t-53.5 -77.5z" />
<glyph unicode="&#xf4;" horiz-adv-x="921" d="M61 377q2 -133 61.5 -222t148.5 -133.5t192 -44.5q102 0 191 45.5t147.5 134.5t58.5 222q0 131 -59.5 218t-148.5 130t-193.5 42t-193.5 -45t-147.5 -131t-56.5 -216zM162 846l24 -33l305 183l305 -183l23 33l-326 289zM231 373q0 119 34 198.5t85 119.5t111 40 q61 0 113.5 -40t88 -117.5t35.5 -194.5t-33.5 -198t-85 -123t-111.5 -44t-113.5 36t-88.5 119t-35 204z" />
<glyph unicode="&#xf5;" horiz-adv-x="921" d="M61 377q2 -133 61.5 -222t148.5 -133.5t192 -44.5q102 0 191 45.5t147.5 134.5t58.5 222q0 131 -59.5 218t-148.5 130t-193.5 42t-193.5 -45t-147.5 -131t-56.5 -216zM191 973l28 -21q39 43 72 56.5t61.5 8.5t56.5 -21.5t56.5 -36t59 -34t67.5 -14.5q29 0 57.5 15.5 t54 39t47 50t34.5 51.5h2l-31 23q-25 -27 -48.5 -45.5t-62.5 -18.5t-74.5 18.5t-70.5 38t-70.5 35t-73.5 9t-78 -41t-87 -112.5zM231 373q0 119 34 198.5t85 119.5t111 40q61 0 113.5 -40t88 -117.5t35.5 -194.5t-33.5 -198t-85 -123t-111.5 -44t-113.5 36t-88.5 119 t-35 204z" />
<glyph unicode="&#xf6;" horiz-adv-x="940" d="M61 377q2 -133 61.5 -222t148.5 -133.5t192 -44.5q102 0 191 45.5t147.5 134.5t58.5 222q0 131 -59.5 218t-148.5 130t-193.5 42t-193.5 -45t-147.5 -131t-56.5 -216zM231 373q0 119 34 198.5t85 119.5t111 40q61 0 113.5 -40t88 -117.5t35.5 -194.5t-33.5 -198t-85 -123 t-111.5 -44t-113.5 36t-88.5 119t-35 204zM258 948q0 -43 24.5 -65.5t53.5 -22.5q31 0 55.5 21.5t24.5 66.5t-24.5 66.5t-55.5 21.5q-29 0 -53.5 -22.5t-24.5 -65.5zM557 948q0 -45 24.5 -66.5t53.5 -21.5q31 0 55.5 22.5t24.5 65.5t-24.5 65.5t-55.5 22.5 q-29 0 -53.5 -21.5t-24.5 -66.5z" />
<glyph unicode="&#xf7;" horiz-adv-x="909" d="M2 387h862v90h-862v-90zM332 209q0 -47 28.5 -69.5t61.5 -22.5q35 0 63.5 22.5t28.5 69.5t-28.5 69.5t-62.5 21.5t-62.5 -24.5t-28.5 -66.5zM334 655q0 -45 28.5 -67.5t61.5 -22.5q35 0 63.5 21.5t28.5 68.5q0 45 -28.5 67.5t-63.5 22.5q-33 0 -61.5 -22.5t-28.5 -67.5z " />
<glyph unicode="&#xf8;" horiz-adv-x="952" d="M60.5 332q7.5 -78 46 -150.5t110.5 -126.5l-98 -143h59l80 117q47 -27 97.5 -39.5t103.5 -12.5q98 0 176 38t130 98.5t76.5 138.5t20.5 157.5t-40 154.5t-107 128l94 137h-59l-76 -110q-49 29 -104.5 40t-112.5 9q-104 -2 -181 -41t-128.5 -101.5t-73 -139t-14 -154.5z M234.5 369.5q-1.5 64.5 10 128t38 115t69.5 83t107 33.5q101 0 164 -86l-344 -498q-20 41 -31.5 100.5t-13 124zM307 98l342 500q23 -43 35 -102.5t12 -124.5q0 -63 -13 -127t-42 -115t-74 -83t-108 -32q-47 0 -85 22.5t-67 61.5z" />
<glyph unicode="&#xf9;" horiz-adv-x="925" d="M-2 731l117 -37q-2 -96 -1 -189t1 -190q0 -78 11 -141t43 -107t88 -67t144 -23q66 0 122.5 27t103.5 72v-41q0 -20 -2 -41l28 -19q59 12 116 14.5t116 8.5v14l-107 33q0 174 -1 347t-1 347q-68 -4 -135.5 -3t-134.5 5v-10l121 -37q4 -139 3 -277t-1 -278 q-16 -20 -41 -38.5t-54.5 -34t-60.5 -24.5t-55 -9q-57 0 -88 28.5t-45.5 70.5t-17.5 90t-3 91q0 109 1 214.5t1 213.5q-135 -6 -268 0v-10zM275 1248.5q1 -15.5 6 -30t11 -26.5q45 -82 102.5 -160t110.5 -153l33 18q-35 78 -68.5 155.5t-66.5 155.5q-4 12 -14.5 30.5 t-23.5 34t-29.5 24t-34.5 -0.5q-16 -6 -21.5 -19t-4.5 -28.5z" />
<glyph unicode="&#xfa;" horiz-adv-x="925" d="M-2 731l117 -37q-2 -96 -1 -189t1 -190q0 -78 11 -141t43 -107t88 -67t144 -23q66 0 122.5 27t103.5 72v-41q0 -20 -2 -41l28 -19q59 12 116 14.5t116 8.5v14l-107 33q0 174 -1 347t-1 347q-68 -4 -135.5 -3t-134.5 5v-10l121 -37q4 -139 3 -277t-1 -278 q-16 -20 -41 -38.5t-54.5 -34t-60.5 -24.5t-55 -9q-57 0 -88 28.5t-45.5 70.5t-17.5 90t-3 91q0 109 1 214.5t1 213.5q-135 -6 -268 0v-10zM377 897l33 -18q53 78 109.5 154.5t103.5 158.5q23 39 17.5 68.5t-26 37t-49 -12t-53.5 -77.5z" />
<glyph unicode="&#xfb;" horiz-adv-x="925" d="M-2 731l117 -37q-2 -96 -1 -189t1 -190q0 -78 11 -141t43 -107t88 -67t144 -23q66 0 122.5 27t103.5 72v-41q0 -20 -2 -41l28 -19q59 12 116 14.5t116 8.5v14l-107 33q0 174 -1 347t-1 347q-68 -4 -135.5 -3t-134.5 5v-10l121 -37q4 -139 3 -277t-1 -278 q-16 -20 -41 -38.5t-54.5 -34t-60.5 -24.5t-55 -9q-57 0 -88 28.5t-45.5 70.5t-17.5 90t-3 91q0 109 1 214.5t1 213.5q-135 -6 -268 0v-10zM131 899l24 -33l305 183l305 -183l23 33l-326 289z" />
<glyph unicode="&#xfc;" horiz-adv-x="925" d="M-2 731l117 -37q-2 -96 -1 -189t1 -190q0 -78 11 -141t43 -107t88 -67t144 -23q66 0 122.5 27t103.5 72v-41q0 -20 -2 -41l28 -19q59 12 116 14.5t116 8.5v14l-107 33q0 174 -1 347t-1 347q-68 -4 -135.5 -3t-134.5 5v-10l121 -37q4 -139 3 -277t-1 -278 q-16 -20 -41 -38.5t-54.5 -34t-60.5 -24.5t-55 -9q-57 0 -88 28.5t-45.5 70.5t-17.5 90t-3 91q0 109 1 214.5t1 213.5q-135 -6 -268 0v-10zM41 950q0 -43 24.5 -65.5t53.5 -22.5q31 0 55.5 21.5t24.5 66.5t-24.5 66.5t-55.5 21.5q-29 0 -53.5 -22.5t-24.5 -65.5zM340 950 q0 -45 24.5 -66.5t53.5 -21.5q31 0 55.5 22.5t24.5 65.5t-24.5 65.5t-55.5 22.5q-29 0 -53.5 -21.5t-24.5 -66.5z" />
<glyph unicode="&#xfd;" horiz-adv-x="514" />
<glyph unicode="&#xfe;" horiz-adv-x="514" />
<glyph unicode="&#xff;" horiz-adv-x="833" d="M-23 731l101 -37q66 -180 132 -358t132 -359q-6 -16 -17.5 -51t-27.5 -78t-35.5 -88t-40 -82.5t-40 -62.5t-38.5 -25q-27 0 -25.5 20.5t-4.5 37.5q-10 25 -31 34t-43.5 4t-38.5 -22.5t-16 -48.5q0 -45 35.5 -69.5t76.5 -24.5q51 0 89 28.5t66 69.5t47 89t36 87l358 899 l101 37l2 10q-72 -4 -142 -4t-141 4v-10l115 -37q-55 -131 -102.5 -264t-98.5 -266l-182 530l116 37v10q-96 -8 -191 -6t-192 6v-10zM223 977q0 -45 24.5 -67.5t53.5 -22.5q31 0 55.5 22.5t24.5 67.5q0 43 -24.5 64.5t-55.5 21.5q-29 0 -53.5 -21.5t-24.5 -64.5zM520 977 q0 -43 24.5 -65.5t54.5 -23.5t54.5 21.5t24.5 67.5q0 43 -24.5 64.5t-55.5 21.5q-29 0 -53.5 -21.5t-24.5 -64.5z" />
<glyph unicode="&#x152;" horiz-adv-x="1722" d="M69 603q1 -116 37.5 -227.5t109.5 -198.5t180.5 -140t250.5 -53q41 0 76 8t74 12q33 4 68.5 2t68.5 -2q180 2 359.5 -5t359.5 -9q6 100 12 199.5t18 199.5h-14q-18 -143 -72.5 -215t-136.5 -99.5t-184 -25.5t-219 4q-4 141 -3 279.5t1 279.5q74 0 138 -1t114.5 -19.5 t84 -64.5t46.5 -136h14q-4 123 -4 246t6 246h-14q-2 -86 -39 -131t-93.5 -64.5t-124 -20.5t-128.5 -1q0 121 -1 240.5t3 240.5q94 0 183 1t163 -20.5t127 -77t76 -169.5h14q-4 84 -9 166.5t3 166.5q-119 -10 -236.5 -13t-236.5 -3q-33 0 -78 -1t-91 -2t-89 0t-74 5 q-41 6 -79 13.5t-81 7.5q-147 0 -256.5 -53.5t-182.5 -139.5t-107.5 -197.5t-33.5 -227.5zM279 604q0 86 16 186.5t57 184.5t112 140t179 56q57 0 109.5 -20.5t87.5 -67.5q25 -35 36 -93t16 -123.5t5 -129.5v-104q0 -49 1 -107.5t-1 -118t-9 -117t-26 -102.5 q-59 -150 -219 -149q-102 0 -172 58.5t-113 144.5t-61 184t-18 178z" />
<glyph unicode="&#x153;" horiz-adv-x="1456" d="M61 369.5q2 -101.5 47.5 -187.5t133.5 -144t217 -61q96 -2 178 35t141 113q55 -78 138 -113t178 -35q92 0 159.5 41t120.5 113l-14 8q-53 -55 -101.5 -80.5t-125.5 -25.5q-80 0 -134.5 33.5t-86 89t-44 124t-8.5 136.5q33 -6 86 -12.5t113.5 -8.5t122 3t111.5 23.5 t82 51.5t32 86q0 63 -32 104.5t-80 64t-104 31.5t-108 9q-92 0 -168.5 -36t-134.5 -107q-59 78 -144 112.5t-179 30.5q-135 -4 -223.5 -63.5t-131.5 -146.5t-41 -188.5zM231 373q0 106 28 181t72 119t97 55t103.5 -10.5t91.5 -76.5t61 -145l-61 18l-5 -12l72 -37 q20 -131 -6.5 -226.5t-76.5 -150.5t-115.5 -68.5t-123 19.5t-97.5 116t-40 218zM864 455q8 90 40 147t75 88t91 38t88 -7t66.5 -45t26.5 -74q0 -63 -25.5 -95t-65.5 -45t-87 -14.5t-92 -1.5q-29 0 -58.5 2.5t-58.5 6.5z" />
<glyph unicode="&#x178;" horiz-adv-x="1054" d="M-63 1190l145 -37q8 -12 35.5 -58t63.5 -109.5t76 -134.5t74 -131.5t55.5 -102.5t21.5 -46v-524l-203 -35v-12q287 6 575 0v12l-198 35v522q84 147 166.5 291t164.5 291l160 41v10q-100 0 -199.5 -2t-199.5 2v-12l155 -37q-63 -133 -132.5 -259t-141.5 -255l-268 514 l162 39v10q-254 -6 -512 0v-12zM340 1372q0 -43 24.5 -65.5t53.5 -22.5q31 0 55.5 21.5t24.5 66.5t-24.5 66.5t-55.5 21.5q-29 0 -53.5 -22.5t-24.5 -65.5zM639 1372q0 -45 24.5 -66.5t53.5 -21.5q31 0 55.5 22.5t24.5 65.5t-24.5 65.5t-55.5 22.5q-29 0 -53.5 -21.5 t-24.5 -66.5z" />
<glyph unicode="&#x2c6;" horiz-adv-x="4" d="M72 899l32 -22l256 268l287 -268l31 24l-301 402z" />
<glyph unicode="&#x2dc;" horiz-adv-x="0" d="M33 973l28 -21q39 43 72 56.5t61.5 8.5t56.5 -21.5t56.5 -36t59 -34t67.5 -14.5q29 0 57.5 15.5t54 39t47 50t34.5 51.5h2l-31 23q-25 -27 -48.5 -45.5t-62.5 -18.5t-74.5 18.5t-70.5 38t-70.5 35t-73.5 9t-78 -41t-87 -112.5z" />
<glyph unicode="&#x2000;" horiz-adv-x="859" />
<glyph unicode="&#x2001;" horiz-adv-x="1718" />
<glyph unicode="&#x2002;" horiz-adv-x="859" />
<glyph unicode="&#x2003;" horiz-adv-x="1718" />
<glyph unicode="&#x2004;" horiz-adv-x="572" />
<glyph unicode="&#x2005;" horiz-adv-x="429" />
<glyph unicode="&#x2006;" horiz-adv-x="286" />
<glyph unicode="&#x2007;" horiz-adv-x="286" />
<glyph unicode="&#x2008;" horiz-adv-x="214" />
<glyph unicode="&#x2009;" horiz-adv-x="343" />
<glyph unicode="&#x200a;" horiz-adv-x="95" />
<glyph unicode="&#x2010;" horiz-adv-x="585" d="M74 342h424v119h-424v-119z" />
<glyph unicode="&#x2011;" horiz-adv-x="585" d="M74 342h424v119h-424v-119z" />
<glyph unicode="&#x2012;" horiz-adv-x="585" d="M74 342h424v119h-424v-119z" />
<glyph unicode="&#x2013;" horiz-adv-x="952" d="M68 342h778l2 119h-778z" />
<glyph unicode="&#x2014;" horiz-adv-x="1173" d="M14 342h1106l2 119h-1108v-119z" />
<glyph unicode="&#x2018;" horiz-adv-x="364" d="M34 1001.5q-5 -49.5 12 -90.5t55 -68.5t96 -27.5q53 0 80.5 28.5t32.5 63.5t-13 63.5t-55 28.5t-47.5 -15t-12.5 -31.5t-5 -29t-25 -5.5q-41 10 -52.5 51t5 88t60.5 87t116 50l-2 10q-80 -6 -132.5 -36.5t-80 -73.5t-32.5 -92.5z" />
<glyph unicode="&#x2019;" horiz-adv-x="364" d="M68.5 1110q-5.5 -35 13 -63.5t55.5 -28.5q35 0 45.5 14.5t13.5 31.5t6.5 29.5t26.5 6.5q39 -10 50.5 -50t-5 -87.5t-61.5 -88t-115 -51.5l2 -10q78 6 131.5 37t81 74t32.5 92t-12.5 90t-55 68.5t-95.5 27.5q-53 0 -80.5 -28.5t-33 -63.5z" />
<glyph unicode="&#x201a;" horiz-adv-x="1196" d="M49 -88l6 -6l103 131q51 -31 88 -45.5t96 -14.5q117 0 187.5 68t70.5 186q0 76 -30.5 119t-75.5 66.5t-99.5 36t-99.5 28t-76 40t-31 75.5q0 53 27 85t67 43t87 3t86 -34.5t64.5 -70.5t23.5 -106h14q-4 92 10.5 184.5t55.5 176.5q14 29 35.5 60.5t49 58t59.5 44t67 17.5 q63 0 63 -64q0 -41 -23.5 -88t-59.5 -89t-78 -74.5t-81 -45.5v-14h111q0 -111 -1 -217.5t-1 -216.5q0 -53 5 -102.5t23.5 -86t55.5 -59.5t102 -23q59 0 113.5 16.5t101.5 57.5v21q-27 -20 -56.5 -34.5t-60 -17t-57 11t-47.5 50.5q-23 39 -24.5 86t-1.5 90q0 106 -1.5 211.5 t1.5 212.5h212l3 61l-215 -4q2 35 11 94.5t7 116t-24.5 98.5t-80.5 42q-66 0 -116.5 -41t-89.5 -99.5t-69 -124t-50 -114.5q-59 45 -129 55t-130.5 -12.5t-101.5 -74.5t-41 -134q0 -76 31 -120t77 -68.5t100.5 -39t100.5 -32t75.5 -45t29.5 -80.5q-2 -47 -28.5 -80 t-67.5 -48.5t-89 -12t-92 28t-79 71.5t-45 121h-13q2 -51 2 -93q0 -39 -4 -75.5t-16 -74.5t-37 -85z" />
<glyph unicode="&#x201c;" horiz-adv-x="729" d="M30 1001.5q-5 -49.5 12 -91.5t55 -69.5t96 -27.5q53 0 80.5 28.5t32.5 63.5t-13.5 63.5t-54.5 28.5q-37 0 -47.5 -14t-12.5 -30.5t-6 -28t-27 -6.5q-39 8 -50 48t5.5 87t60 88t115.5 51l-2 10q-80 -4 -132 -34.5t-79.5 -73.5t-32.5 -92.5zM421 999.5q-5 -49.5 12.5 -90.5 t54 -68.5t94.5 -27.5q53 0 80.5 28.5t32.5 64.5t-12 64.5t-56 28.5q-35 0 -45.5 -14t-13.5 -30.5t-6 -29t-25 -7.5q-41 8 -52.5 49t5 88t60.5 88t116 51l-2 10q-78 -6 -130.5 -36.5t-80 -74.5t-32.5 -93.5z" />
<glyph unicode="&#x201d;" horiz-adv-x="729" d="M32 1110q-5 -35 13 -63.5t55 -28.5t47.5 14.5t12.5 31.5t4.5 29.5t25.5 6.5q41 -10 52.5 -50t-5 -87.5t-60.5 -88t-116 -51.5l2 -10q78 6 131.5 37t81 74t32.5 92t-12 90t-55 68.5t-96 27.5q-53 0 -80.5 -28.5t-32.5 -63.5zM420 1111q-4 -36 13.5 -64.5t58.5 -28.5 q33 0 43 14.5t13 31.5t7 29.5t27 6.5q41 -10 52 -50t-6.5 -87.5t-61.5 -88t-115 -51.5l4 -10q78 6 130 37t79.5 75t32.5 93t-12 90t-55 68.5t-95 27.5q-53 0 -82 -28.5t-33 -64.5z" />
<glyph unicode="&#x201e;" horiz-adv-x="729" d="M32 82q-5 -35 13 -63.5t55 -28.5q35 0 45.5 14t13.5 31.5t5.5 30t25.5 6.5q41 -10 52.5 -51t-5 -88.5t-61.5 -88.5t-115 -49l2 -10q78 6 131.5 37t81 74t32.5 92t-12 90t-55 68.5t-96 27.5q-53 0 -80.5 -28.5t-32.5 -63.5zM421 82q-5 -35 13.5 -63.5t54.5 -28.5 q35 0 46.5 14t14.5 31.5t6 30t26 6.5q41 -10 52 -50t-5.5 -87.5t-60.5 -88.5t-115 -51v-10q78 6 131 37t81.5 74t32.5 92t-12 90t-54 68.5t-95 27.5q-55 0 -83 -28.5t-33 -63.5z" />
<glyph unicode="&#x2022;" horiz-adv-x="716" d="M137 573q0 -68 30 -112.5t76 -67t97 -22.5q53 0 99 22.5t76 67t30 110.5q0 68 -31 113t-76 68.5t-98 22.5t-98 -22.5t-75 -66.5t-30 -113z" />
<glyph unicode="&#x2026;" horiz-adv-x="823" d="M10 78q0 -43 24.5 -65.5t53.5 -22.5q31 0 55.5 21.5t24.5 66.5q0 43 -24.5 64.5t-55.5 21.5q-29 0 -53.5 -21.5t-24.5 -64.5zM305 78q0 -43 24.5 -65.5t53.5 -22.5q31 0 55.5 21.5t24.5 66.5q0 43 -24.5 64.5t-55.5 21.5q-29 0 -53.5 -21.5t-24.5 -64.5zM618 78 q0 -45 25 -66.5t53 -21.5q31 0 55.5 22.5t24.5 65.5t-24.5 64.5t-55.5 21.5q-29 0 -53.5 -21.5t-24.5 -64.5z" />
<glyph unicode="&#x202f;" horiz-adv-x="343" />
<glyph unicode="&#x2039;" horiz-adv-x="421" d="M-78 264q68 -66 138.5 -130t140.5 -130q37 -35 74.5 -71.5t78.5 -67.5l25 22q-66 92 -131.5 186.5t-136.5 184.5q72 90 135 185.5t131 187.5l-23 20q-53 -37 -103 -85t-97 -91q-59 -51 -119 -102t-113 -107v-2z" />
<glyph unicode="&#x203a;" horiz-adv-x="536" d="M41 -113l25 -22q41 31 78.5 67.5t74.5 71.5q70 66 140.5 130t138.5 130v2q-53 55 -112.5 106.5t-119.5 102.5q-47 43 -97 91t-103 85l-23 -20q66 -94 130.5 -188.5t135.5 -184.5q-72 -90 -137.5 -184t-130.5 -187z" />
<glyph unicode="&#x205f;" horiz-adv-x="429" />
<glyph unicode="&#x20ac;" horiz-adv-x="1327" d="M49 446h225q20 -94 65.5 -179t117 -149.5t169 -102.5t222.5 -38q186 0 330 115l86 -67l8 4q-14 109 -10 219t10 219h-19q-8 -82 -36.5 -159t-79 -137t-121 -96t-160.5 -36q-92 0 -158.5 33.5t-111.5 91t-72 131.5t-39 151h711l8 58h-725q-6 49 -6 94v41q0 20 2 43h756 l8 59h-756q10 76 36 153t70 138.5t106.5 99t148.5 37.5q184 0 280 -106.5t100 -284.5h19q-8 100 2 199.5t25 198.5h-13l-67 -64q-84 63 -166 90t-189 27q-119 0 -213 -40t-163.5 -106.5t-113.5 -154.5t-63 -187h-180l-8 -59h180q-6 -45 -5 -89t5 -89h-207z" />
<glyph unicode="&#x2122;" horiz-adv-x="1335" d="M29 932h6q4 61 18.5 96t41 52.5t67.5 22.5t96 7v-553l-104 -16v-9q154 6 307 0v9l-107 16v553q59 2 97 -3t61 -23.5t33 -54.5t14 -97h10q-4 53 -5 106.5t5 106.5q-135 0 -269 -2t-269 2q6 -53 3 -106.5t-5 -106.5zM600 535h229v6l-100 18q0 139 -1 277.5t-1 277.5 q47 -145 93 -288.5t93 -290.5h21q47 147 94 291.5t96 289.5q4 -139 5 -278.5t-3 -278.5l-96 -18v-6h283v6l-94 18q-4 141 -5.5 278.5t3.5 278.5l96 21v6h-211q-35 -115 -72 -226.5t-76 -224.5q-37 113 -72.5 224.5t-70.5 226.5h-207v-6l92 -23q4 -139 5 -277.5t-3 -277.5 l-98 -18v-6z" />
<glyph unicode="&#xe000;" horiz-adv-x="737" d="M0 0v737h737v-737h-737z" />
</font>
</defs>
</svg>
